{"glyphs":{"0":{"ha":659,"x_min":27,"x_max":632,"o":"m 569 288 q 497 129 542 204 q 423 39 467 78 q 372 3 400 18 q 309 -12 339 -12 q 226 18 266 -12 q 155 104 180 52 q 113 248 124 174 q 101 416 102 332 l 101 419 q 83 477 100 450 q 27 678 27 577 q 73 861 27 769 q 281 1021 138 991 q 341 1027 312 1027 q 453 1004 391 1027 q 567 901 515 981 q 623 745 611 828 q 632 642 632 694 l 632 628 q 569 288 627 453 m 374 132 q 440 237 416 179 q 514 473 490 351 q 530 625 530 549 q 524 718 530 671 q 475 854 516 792 q 370 923 437 912 q 338 926 353 926 q 208 873 264 926 q 131 694 133 799 q 137 690 134 692 l 140 688 q 143 694 142 691 q 151 705 146 701 q 180 718 165 718 q 201 711 191 718 q 224 673 224 699 l 224 670 q 221 640 223 655 q 219 629 220 634 q 214 590 217 609 q 207 533 210 562 q 205 512 205 522 q 208 487 205 502 q 230 458 211 473 q 236 451 233 456 q 240 442 238 447 q 241 441 241 441 q 245 420 245 430 q 231 387 245 401 q 217 377 225 380 q 207 367 210 373 q 205 357 205 362 l 205 353 q 233 184 208 267 q 257 131 241 155 q 282 103 268 116 q 310 91 295 91 q 332 97 320 91 q 374 132 355 111 z "},"1":{"ha":319,"x_min":27,"x_max":292,"o":"m 263 122 q 292 79 292 110 l 292 76 q 260 31 291 43 q 239 26 250 28 q 232 26 235 26 q 216 22 224 24 q 121 5 168 14 q 87 3 104 3 q 47 34 56 5 q 46 47 46 41 q 68 83 46 70 q 104 96 85 92 q 124 119 122 101 q 129 164 126 142 q 137 244 134 204 q 157 790 157 517 l 157 820 q 148 895 157 858 q 139 906 146 906 q 130 903 135 906 q 116 895 123 899 q 94 882 105 887 q 68 876 80 876 q 35 894 48 876 q 27 918 27 905 q 28 931 27 921 q 44 954 30 941 q 113 1002 75 983 q 155 1013 135 1013 q 220 978 191 1013 q 248 918 241 951 q 258 839 256 879 q 258 741 258 789 q 253 505 258 623 q 242 303 249 404 l 241 275 l 235 205 q 232 162 233 184 q 231 157 232 159 q 231 149 231 153 q 233 132 231 140 q 242 129 237 130 q 263 122 253 126 z "},"2":{"ha":513,"x_min":27,"x_max":486,"o":"m 319 1010 q 474 877 438 992 q 486 791 486 834 q 480 732 486 762 q 428 551 465 639 q 306 319 378 429 q 229 201 269 260 q 193 148 210 175 l 175 121 q 165 105 170 114 q 186 104 176 104 q 221 108 205 104 q 229 109 225 109 q 318 119 273 115 q 353 120 335 120 q 408 117 380 120 q 416 115 412 116 q 437 112 427 115 q 462 94 452 107 q 473 65 472 81 q 441 20 471 34 q 410 13 425 13 q 396 14 403 13 q 343 18 370 18 q 278 12 311 18 q 250 9 264 11 q 199 3 224 7 q 171 0 184 2 q 151 -1 161 -1 q 104 5 127 -1 q 50 44 65 15 q 43 75 43 59 q 50 111 43 92 q 81 165 63 139 q 128 234 104 199 q 178 307 153 270 q 313 542 255 419 q 379 744 361 638 q 383 795 383 770 q 382 814 383 805 q 371 863 382 840 q 306 909 351 904 q 289 909 297 909 q 208 882 244 909 q 125 753 146 830 q 122 730 122 742 q 126 704 122 717 q 127 699 127 701 q 133 671 132 685 l 133 670 q 105 629 133 640 q 89 626 97 626 q 56 642 71 626 q 44 664 49 652 q 27 741 27 701 q 33 786 27 763 q 156 969 61 901 q 287 1012 216 1012 q 319 1010 302 1012 z "},"3":{"ha":631,"x_min":27,"x_max":604,"o":"m 509 491 q 604 317 604 419 q 591 237 604 279 q 535 139 573 182 q 245 3 420 8 q 159 22 200 3 q 47 143 76 56 q 28 241 33 191 q 27 248 27 245 q 29 262 27 255 q 46 291 33 280 q 76 303 59 302 l 78 303 q 107 293 94 303 q 125 266 120 283 q 131 237 129 252 q 133 224 132 231 l 134 214 q 139 188 136 201 q 233 106 159 115 q 252 104 243 104 q 271 106 262 104 q 464 212 388 121 q 499 287 490 245 q 503 315 503 302 q 465 397 503 362 q 389 439 431 426 q 292 463 341 455 q 287 464 290 464 q 283 465 285 465 q 243 475 262 468 q 208 515 214 489 q 205 528 205 522 q 220 566 205 547 q 257 599 237 585 q 353 680 308 636 q 423 768 394 720 q 450 842 444 802 q 451 855 451 849 q 394 914 451 907 l 384 914 q 324 903 353 914 q 231 857 274 886 q 157 784 188 829 q 136 758 148 770 q 106 747 121 747 q 81 755 94 747 q 62 789 62 769 q 66 806 62 797 q 123 893 87 855 q 360 1015 220 996 q 385 1016 372 1016 q 431 1010 408 1016 q 553 861 545 979 q 524 740 553 796 q 417 601 483 661 q 394 579 406 590 l 380 567 l 380 566 q 374 560 376 564 q 373 554 373 557 l 373 551 q 385 547 379 549 q 411 539 397 543 q 509 491 463 523 z "},"4":{"ha":566,"x_min":27,"x_max":539,"o":"m 488 513 q 539 468 534 509 l 539 465 q 496 414 539 425 q 478 412 488 412 q 459 410 468 412 q 445 401 450 408 q 437 382 437 393 l 437 375 q 438 359 437 367 q 439 341 439 350 q 438 170 438 256 q 437 56 437 113 q 434 15 437 35 q 416 -16 429 -5 q 384 -28 402 -28 q 336 21 344 -24 q 335 42 335 31 l 335 201 l 338 201 l 338 365 q 334 381 338 378 q 326 383 332 383 q 311 381 320 383 q 271 375 291 378 q 216 367 243 371 q 177 364 196 364 q 120 370 149 364 q 37 450 56 387 q 27 514 27 481 q 28 529 27 522 q 39 650 31 589 q 46 709 42 679 q 71 961 65 834 q 77 989 71 976 q 117 1017 89 1017 l 119 1017 q 159 986 149 1015 q 163 958 162 972 q 163 910 163 934 q 150 711 163 810 q 132 566 140 639 q 129 528 129 547 q 130 512 129 519 q 140 473 130 482 q 170 465 149 465 q 180 466 175 465 q 243 473 212 468 q 291 481 267 477 l 325 488 q 340 505 340 491 q 342 538 340 522 q 347 623 344 581 q 347 628 347 625 q 352 668 348 648 q 394 701 362 701 l 399 701 q 438 663 431 696 q 440 628 440 646 l 440 622 q 441 582 440 602 q 441 530 441 555 l 441 528 q 457 512 441 512 l 459 512 q 471 513 465 512 q 482 513 477 513 l 488 513 z "},"5":{"ha":574,"x_min":27,"x_max":547,"o":"m 379 514 q 532 403 490 506 q 547 321 547 362 q 536 251 547 286 q 443 98 513 165 q 261 15 374 30 q 240 14 250 14 q 134 45 184 14 q 37 143 76 85 q 28 162 31 152 q 27 176 27 170 q 50 216 27 201 q 76 224 63 224 q 105 214 91 224 q 123 196 115 205 q 128 190 126 193 q 143 174 136 182 q 168 146 155 160 q 241 117 199 117 q 256 117 248 117 q 316 134 288 120 q 441 296 418 184 q 445 323 445 309 q 441 350 445 336 q 366 413 429 413 l 360 413 q 320 408 340 413 q 227 386 273 398 q 178 379 203 379 l 169 379 q 87 445 106 385 q 79 494 79 469 l 79 620 q 87 711 84 665 q 95 811 89 762 q 118 909 100 861 q 257 1007 157 1007 q 271 1006 264 1007 q 301 1004 286 1005 q 380 1000 340 1000 l 400 1000 q 417 999 409 1000 q 451 961 446 990 l 451 956 q 426 917 451 930 q 394 909 410 910 q 335 906 365 907 l 262 906 q 211 869 223 906 q 197 804 200 837 q 188 691 191 747 q 182 575 184 633 q 181 545 182 559 q 180 519 180 532 l 180 507 q 185 485 180 489 q 193 483 188 483 q 207 485 199 483 l 304 509 q 357 515 330 515 q 379 514 368 515 z "},"6":{"ha":462,"x_min":27,"x_max":435,"o":"m 361 531 q 421 404 404 474 q 435 294 435 349 q 403 129 435 210 q 336 24 381 69 q 223 -28 281 -28 q 181 -25 217 -28 q 97 46 146 -22 q 51 149 65 94 q 27 332 27 239 q 30 393 27 363 q 126 837 46 622 q 214 998 157 924 q 236 1023 223 1012 q 260 1032 248 1032 q 283 1025 271 1032 q 304 987 304 1012 q 304 979 304 983 q 292 952 300 964 q 225 812 251 886 q 177 661 199 739 q 167 625 172 643 q 186 621 178 623 q 221 615 205 618 q 361 531 307 601 m 311 171 q 333 294 333 232 q 318 396 333 345 q 280 470 306 437 q 207 515 252 507 q 165 520 186 518 l 163 520 q 150 516 154 520 q 143 502 145 513 q 131 371 134 441 q 129 336 130 354 q 130 311 130 325 q 137 231 132 274 q 160 142 142 185 q 187 96 170 117 q 224 74 204 74 q 258 91 240 74 q 283 119 273 104 q 311 171 301 142 z "},"7":{"ha":428,"x_min":27,"x_max":401,"o":"m 275 1027 q 355 988 322 1021 q 398 898 389 956 q 401 849 401 873 q 393 769 401 809 q 354 591 378 680 q 344 549 349 570 q 340 538 342 544 l 339 533 q 335 507 335 520 q 335 498 335 506 q 347 475 335 490 q 356 451 356 464 q 353 434 356 446 q 330 412 349 422 q 309 395 315 405 q 300 371 303 385 q 238 55 266 214 q 237 53 238 54 q 230 18 235 35 q 184 -16 216 -16 q 174 -15 179 -16 q 133 36 136 -7 q 135 54 133 45 l 136 60 q 200 389 164 225 l 203 402 q 203 408 203 405 q 194 413 199 412 q 184 414 189 414 q 178 415 181 414 q 171 416 175 416 q 150 420 160 417 q 119 461 119 431 l 119 464 q 130 491 120 479 q 155 505 139 502 q 182 506 168 506 l 209 506 q 225 509 221 506 q 232 524 229 512 q 241 558 237 541 q 294 792 273 674 q 300 847 300 819 q 298 880 300 863 q 285 915 295 904 q 251 928 275 925 q 201 932 227 931 q 189 932 195 932 q 146 935 167 934 q 92 937 119 936 q 59 942 75 938 q 27 985 27 952 q 58 1025 29 1016 q 87 1029 73 1029 q 217 1032 152 1031 l 221 1032 q 275 1027 248 1032 z "},"8":{"ha":574,"x_min":27,"x_max":547,"o":"m 419 540 l 420 539 q 457 507 439 524 q 547 303 547 422 q 546 274 547 289 q 506 160 539 213 q 414 78 473 108 q 304 54 367 54 q 275 55 290 54 q 120 120 182 65 q 38 268 58 175 q 27 369 27 319 q 61 543 27 457 q 90 601 73 573 l 96 610 q 102 629 102 620 q 98 645 102 637 q 79 721 79 684 q 84 763 79 733 q 122 838 89 793 q 260 932 174 909 q 307 939 285 939 q 390 914 347 939 q 451 822 432 890 q 458 781 456 802 q 460 761 460 771 q 460 753 460 757 q 432 613 456 680 q 420 583 427 597 q 413 562 417 572 q 411 554 411 558 q 419 540 411 547 m 204 778 q 182 720 182 750 q 183 702 182 718 q 218 656 183 686 q 315 602 263 623 q 348 685 336 637 q 358 753 358 722 q 357 768 358 760 q 350 804 356 786 q 308 836 340 836 l 302 836 q 273 829 288 835 q 204 778 231 814 m 422 219 q 447 305 447 262 q 425 386 447 345 q 367 450 406 422 l 359 444 q 342 432 351 437 q 317 425 329 425 q 291 434 307 425 q 271 469 275 442 l 271 474 q 271 485 271 479 q 272 490 272 488 q 273 503 273 498 q 270 509 273 507 q 259 515 267 512 q 195 550 227 533 l 189 553 q 178 556 182 556 q 174 555 176 556 q 167 545 171 555 q 130 374 130 460 q 142 271 130 323 q 253 162 167 186 q 300 156 277 156 q 319 157 310 156 q 422 219 387 161 z "},"9":{"ha":535,"x_min":27,"x_max":508,"o":"m 505 800 q 507 766 507 783 q 508 726 508 747 q 457 323 508 522 q 400 190 439 252 q 302 94 363 130 q 206 68 256 68 q 170 71 188 68 q 62 146 102 90 q 52 178 52 161 q 53 191 52 180 q 68 214 54 201 q 100 227 84 227 q 134 214 117 227 q 151 198 143 207 l 161 188 q 205 170 181 170 q 227 173 216 170 q 290 212 264 184 q 340 294 322 248 q 378 430 366 360 q 399 587 393 508 l 399 610 q 374 586 380 598 q 370 579 372 583 q 289 495 335 532 q 215 456 256 469 q 172 450 192 450 q 60 510 105 450 q 29 591 34 547 q 27 630 27 611 q 172 906 27 802 q 298 947 231 947 q 363 938 330 947 q 444 881 414 924 q 448 874 446 878 q 477 845 458 856 q 496 826 490 838 q 505 800 502 814 m 374 789 q 379 808 379 801 q 378 814 379 810 q 367 829 378 819 q 334 845 353 843 q 311 846 322 846 q 213 810 256 846 q 128 647 134 738 l 128 635 q 130 605 128 617 q 136 582 132 593 q 174 552 149 552 q 197 557 184 552 q 242 588 222 569 q 303 661 277 621 q 374 789 343 723 z "},"\u0000":{"ha":0,"x_min":0,"x_max":0,"o":""}," ":{"ha":471,"x_min":0,"x_max":0,"o":""},"!":{"ha":253,"x_min":68,"x_max":185,"o":"m 142 56 q 135 56 138 56 q 110 63 123 56 q 90 89 97 71 q 83 117 85 102 q 68 338 68 227 l 68 475 q 70 747 68 611 q 83 1015 71 882 q 89 1039 85 1027 q 131 1067 101 1067 q 171 1037 161 1066 q 175 1004 175 1021 l 175 1000 q 172 732 174 866 q 170 645 172 684 q 170 620 170 631 l 170 519 q 170 310 170 410 q 182 147 171 229 q 185 106 185 127 q 142 56 181 64 m 134 2 q 167 -13 153 2 q 180 -47 180 -27 q 168 -77 180 -64 q 138 -90 155 -89 q 106 -77 119 -90 q 92 -45 93 -64 l 92 -43 q 103 -12 92 -25 q 134 2 115 1 z "},"\"":{"ha":392,"x_min":68,"x_max":324,"o":"m 160 1077 q 165 1042 163 1059 q 180 945 172 994 q 182 927 182 936 q 180 912 182 920 q 134 870 170 874 q 84 906 98 870 q 81 922 81 914 q 71 1024 76 973 l 68 1055 q 68 1067 68 1061 q 71 1092 68 1080 q 114 1131 80 1128 q 158 1093 147 1129 l 159 1082 q 160 1077 160 1080 m 324 962 q 311 931 323 943 q 283 916 300 919 q 275 916 279 916 q 229 947 244 916 q 225 962 226 954 q 222 986 224 975 q 214 1079 214 1032 l 214 1103 q 215 1124 214 1114 q 228 1153 217 1142 q 255 1166 239 1164 l 257 1166 q 283 1157 271 1166 q 301 1131 296 1147 q 305 1106 304 1118 q 321 998 309 1051 q 322 991 321 994 q 324 967 324 979 l 324 962 z "},"#":{"ha":796,"x_min":68,"x_max":728,"o":"m 589 525 q 572 519 575 524 q 569 505 569 515 l 569 487 q 573 468 569 471 q 583 465 576 465 q 597 467 589 465 q 611 469 604 469 q 655 477 633 473 q 669 479 663 479 q 700 472 685 479 q 727 437 723 460 q 728 431 728 434 q 712 396 728 412 q 670 377 694 380 l 644 373 q 588 363 616 368 q 575 357 578 361 q 572 343 572 353 q 574 253 573 298 q 575 197 574 224 l 576 180 l 575 163 q 566 132 574 146 q 526 109 550 109 l 525 109 q 486 131 501 109 q 474 180 474 154 l 474 183 q 471 280 473 231 l 469 313 l 468 329 q 457 340 466 340 l 452 340 q 441 339 446 340 q 419 336 430 337 l 338 322 q 325 317 328 321 q 322 302 322 313 l 322 231 l 325 231 l 326 215 q 329 177 327 196 q 330 168 330 172 q 324 136 330 151 q 281 102 312 104 q 235 133 248 103 q 226 178 226 154 q 222 269 224 223 l 222 270 q 219 294 221 282 q 205 307 217 307 q 170 304 188 306 q 138 302 154 304 l 133 302 q 121 302 127 302 q 109 302 115 302 q 71 341 75 309 l 71 345 q 100 387 71 375 q 136 395 117 392 l 145 396 q 199 405 172 401 q 212 421 212 408 l 212 432 q 206 462 212 456 q 188 466 201 466 q 165 464 179 466 q 128 459 146 462 q 117 458 122 458 q 99 460 108 458 q 68 500 70 472 l 68 502 q 92 541 68 529 q 115 549 103 547 q 154 557 135 553 l 189 564 q 207 572 202 567 q 212 589 211 576 q 214 639 213 614 l 215 669 l 215 678 q 218 710 216 694 q 234 737 222 727 q 262 747 247 747 q 291 736 279 747 q 305 709 302 726 q 308 667 308 688 q 309 650 308 659 l 309 633 l 310 604 q 322 590 311 590 q 326 591 324 590 q 351 595 338 593 q 372 598 361 596 l 401 602 q 446 609 424 606 q 464 616 459 611 q 468 633 468 621 l 468 667 q 473 826 471 746 q 474 867 473 846 q 482 899 474 884 q 520 921 496 921 q 557 899 544 921 q 566 859 566 880 l 566 854 l 568 795 q 570 666 569 730 l 570 660 q 574 632 570 637 q 587 629 578 629 q 603 631 593 629 q 610 631 606 631 q 644 636 627 633 l 655 637 q 669 639 662 639 q 704 630 687 639 q 728 595 725 617 q 728 589 728 592 q 713 555 728 570 q 671 538 695 540 q 667 537 669 537 q 589 525 628 532 m 437 441 q 463 450 458 444 q 467 470 467 454 l 467 488 q 463 504 467 500 q 454 507 460 507 q 448 506 452 507 q 328 488 388 498 q 313 468 313 486 l 313 467 q 314 442 313 454 q 319 427 315 430 q 327 425 321 425 q 334 425 330 425 q 363 429 349 427 q 376 431 370 431 q 394 434 385 433 l 437 441 z "},"$":{"ha":743,"x_min":68,"x_max":675,"o":"m 604 506 q 652 466 632 491 q 675 404 675 436 q 658 349 675 378 q 597 294 634 315 q 458 248 532 259 q 452 247 455 247 l 446 245 q 425 241 431 243 q 417 232 418 239 q 416 208 416 224 l 416 137 l 418 137 l 418 115 l 419 89 l 418 62 q 415 25 418 43 q 398 -2 410 8 q 370 -13 386 -12 q 324 18 339 -13 q 316 64 316 40 l 316 67 q 315 150 315 109 q 315 189 315 169 l 315 198 q 314 218 315 208 q 310 232 314 228 q 297 236 307 235 q 288 237 292 237 q 222 245 255 239 q 117 273 169 255 q 88 288 102 279 q 68 326 68 305 q 71 344 68 334 q 119 376 84 376 l 120 376 q 155 368 138 374 q 156 367 155 367 q 274 340 214 347 q 292 338 285 338 q 307 342 304 338 q 313 365 313 347 l 313 373 l 311 426 q 310 477 310 452 q 292 503 310 496 q 228 532 259 516 q 148 592 182 554 q 109 684 109 636 q 110 714 109 687 q 157 785 111 742 q 254 840 199 823 q 279 846 267 844 l 291 849 q 302 853 299 851 q 307 859 306 854 q 309 871 309 863 q 313 909 312 890 l 314 949 q 316 1001 315 975 q 321 1029 317 1016 q 362 1059 333 1059 l 366 1059 q 405 1026 395 1055 q 408 992 408 1009 q 408 989 408 990 q 411 867 410 928 q 433 836 411 844 q 502 790 471 819 q 510 782 507 786 l 517 775 q 534 744 532 762 l 534 741 q 524 711 534 725 q 492 696 509 696 q 460 707 477 696 q 444 719 452 712 q 429 729 437 724 q 422 732 426 732 q 416 730 420 732 q 412 720 413 728 q 413 603 412 661 l 413 586 q 431 566 414 569 q 445 562 438 564 q 523 539 484 551 q 604 506 566 527 m 309 609 l 309 723 q 309 735 309 729 q 304 746 308 741 q 222 705 256 741 q 212 684 212 694 q 218 667 212 675 q 309 609 251 624 m 564 396 q 567 403 567 399 q 563 410 567 407 q 542 424 553 418 q 417 463 484 450 q 413 403 413 433 q 416 356 413 379 l 416 354 q 420 348 416 349 q 427 347 424 347 l 429 347 q 555 388 496 353 q 564 396 560 391 z "},"%":{"ha":856,"x_min":68,"x_max":788,"o":"m 540 652 q 323 103 444 372 q 294 39 309 71 l 273 -12 q 271 -15 272 -13 q 254 -44 265 -31 q 218 -59 237 -59 q 196 -54 208 -59 q 174 -32 182 -47 q 169 -10 169 -22 q 170 -1 169 -5 q 185 42 175 21 l 226 136 q 297 299 262 217 q 454 718 385 505 q 490 851 476 783 q 494 892 493 871 l 494 899 q 490 915 494 911 q 481 918 487 918 q 468 915 476 918 q 414 895 452 910 q 338 863 377 880 q 280 836 300 846 q 289 823 285 829 q 304 799 298 811 q 328 713 328 758 q 325 675 328 705 q 288 604 322 644 q 249 572 271 584 q 194 557 220 557 q 120 593 154 557 q 68 733 68 654 q 69 756 68 744 q 82 808 73 782 q 86 821 84 814 q 109 852 94 839 q 113 857 111 854 q 172 900 140 884 q 237 931 203 917 l 241 932 q 363 983 302 958 q 412 1002 387 992 q 475 1020 442 1015 q 496 1021 486 1021 q 593 937 575 1021 q 596 896 596 916 q 589 833 596 864 q 540 652 571 741 m 216 676 q 226 719 226 691 q 216 750 224 734 q 187 774 208 765 q 178 777 182 777 q 166 764 169 777 q 165 745 165 754 q 184 677 165 709 q 200 664 192 664 q 216 676 208 664 m 711 458 q 786 372 775 437 q 788 346 788 359 q 755 239 788 294 q 662 161 723 184 q 625 154 642 154 q 580 165 606 154 q 538 214 555 176 q 525 281 525 247 q 532 330 525 305 q 578 429 547 383 q 585 442 582 436 q 624 465 598 463 l 633 465 l 644 465 l 661 465 q 711 458 686 465 m 640 264 q 686 347 685 294 q 670 363 685 361 q 659 364 664 364 q 648 361 654 364 q 637 347 643 359 q 625 288 625 323 l 625 283 l 626 282 q 626 277 626 280 q 627 271 627 274 q 632 264 629 266 q 635 263 634 263 q 640 264 638 263 z "},"&":{"ha":654,"x_min":68,"x_max":587,"o":"m 563 698 q 587 659 587 684 q 585 645 587 652 q 575 622 581 633 q 514 517 548 567 q 433 428 480 467 q 420 404 420 417 q 425 387 420 396 q 486 229 455 309 q 505 177 495 203 q 509 168 507 173 q 517 146 513 157 q 518 134 518 140 q 512 110 518 123 q 491 89 506 97 q 469 83 480 83 q 451 86 463 83 q 428 105 439 90 q 412 139 418 121 q 361 268 386 203 l 343 314 q 336 332 340 322 q 331 346 334 338 q 310 334 320 340 q 270 311 289 321 q 184 277 230 287 q 162 275 173 275 q 100 297 127 275 q 68 376 68 323 l 68 386 q 90 457 73 423 q 146 546 114 504 q 222 645 183 596 q 240 689 240 665 q 239 702 240 695 q 235 752 235 727 q 242 819 235 785 q 269 884 250 854 q 308 921 284 907 q 349 932 328 932 q 378 926 358 932 q 416 890 398 920 q 431 834 431 864 q 430 822 431 828 q 404 734 427 775 q 361 663 384 698 q 352 635 352 650 q 353 624 352 629 q 372 555 363 589 l 378 528 q 384 527 382 527 q 392 529 388 527 q 399 536 395 532 q 401 538 400 537 q 486 652 449 591 q 488 655 487 654 q 509 686 498 671 q 543 703 525 703 q 563 698 553 703 m 287 441 q 293 457 293 445 l 293 460 q 289 473 291 466 q 276 516 283 494 q 275 519 276 517 q 273 525 275 522 q 269 529 272 528 q 265 530 267 530 q 260 528 262 530 q 256 523 258 526 l 255 522 q 189 427 218 477 q 175 396 181 412 q 174 390 174 393 q 175 385 174 387 q 180 381 177 381 q 186 382 183 381 q 287 441 240 406 z "},"'":{"ha":263,"x_min":68,"x_max":195,"o":"m 104 930 q 99 942 101 936 q 92 973 96 958 q 69 1063 79 1018 q 68 1075 68 1069 q 75 1099 68 1087 q 99 1116 83 1111 q 113 1118 106 1118 q 134 1113 122 1118 q 153 1089 146 1107 q 183 1000 170 1045 q 193 966 188 983 q 195 958 195 962 q 195 955 195 956 q 161 907 193 918 q 147 905 154 905 q 104 930 121 905 z "},"(":{"ha":345,"x_min":68,"x_max":277,"o":"m 197 -38 q 174 -14 184 -27 q 108 120 127 47 q 71 368 75 242 q 69 431 70 399 l 68 460 q 106 851 72 657 q 156 1015 124 935 q 163 1030 159 1023 q 201 1052 178 1052 q 218 1049 209 1052 q 245 1006 245 1038 l 245 1002 q 239 974 243 988 q 172 458 172 720 q 176 327 172 393 q 206 146 180 235 q 256 45 222 91 q 272 21 266 34 q 277 -2 277 9 q 258 -39 277 -23 q 228 -50 245 -50 q 197 -38 211 -50 z "},")":{"ha":369,"x_min":68,"x_max":301,"o":"m 163 1014 q 236 873 214 951 q 301 450 298 678 q 286 279 300 368 q 239 101 272 190 q 217 45 229 73 q 211 31 214 38 q 200 9 206 20 q 170 -14 188 -9 q 156 -16 163 -16 q 134 -12 145 -16 q 111 14 118 -3 q 107 33 107 22 q 110 49 107 41 q 123 84 115 67 q 182 278 165 178 q 199 465 199 370 l 199 479 q 127 882 193 686 q 86 964 113 926 q 71 988 77 975 q 68 1005 68 997 q 70 1020 68 1010 q 83 1038 73 1029 q 111 1049 96 1049 q 137 1040 123 1049 q 163 1014 151 1029 z "},"*":{"ha":611,"x_min":68,"x_max":543,"o":"m 481 726 q 501 730 492 730 q 534 713 519 730 q 543 686 543 700 q 536 662 543 674 q 509 635 524 648 l 456 591 q 407 549 431 570 q 400 539 400 544 q 408 530 400 534 q 435 510 421 519 q 456 496 446 503 q 481 464 473 484 q 485 446 485 454 q 473 416 485 430 q 437 399 458 399 q 428 400 433 399 q 391 417 408 405 l 387 420 l 373 429 q 341 447 359 442 q 334 429 334 438 l 334 422 q 334 409 334 415 q 335 397 335 403 l 335 391 q 334 364 334 378 q 335 336 334 351 l 335 313 q 327 275 335 293 q 284 246 314 248 q 239 277 254 247 q 233 311 233 294 l 233 330 q 233 373 233 351 q 232 379 233 376 q 229 384 231 382 q 223 386 226 386 q 220 385 222 386 q 215 381 218 384 q 214 380 215 380 l 194 362 q 164 336 179 349 q 136 317 151 325 q 113 313 124 313 q 79 328 94 313 q 68 358 68 342 q 75 387 68 372 q 101 416 86 403 q 103 417 102 416 q 158 466 130 441 l 212 515 q 220 524 216 519 q 226 530 223 526 q 194 558 210 544 q 114 629 153 595 l 109 635 q 90 652 98 643 q 77 683 77 668 q 87 710 77 696 q 113 725 98 722 q 123 726 118 726 q 144 720 134 726 q 168 704 157 713 l 175 699 l 197 682 q 222 663 210 673 q 227 662 224 662 q 231 663 229 662 q 234 669 233 665 q 235 687 235 678 q 238 715 237 701 q 245 751 239 734 q 262 772 250 765 q 285 778 273 778 l 289 778 q 313 768 302 777 q 328 745 324 759 q 330 715 330 730 l 330 711 l 330 702 l 330 692 l 330 669 l 330 664 l 330 658 q 329 650 329 654 q 334 629 329 640 l 338 629 q 351 633 345 629 q 362 642 356 636 q 372 650 367 646 q 424 687 398 668 l 454 709 q 481 726 467 719 z "},"+":{"ha":599,"x_min":68,"x_max":531,"o":"m 490 407 q 469 406 480 406 l 453 404 q 437 404 445 404 l 429 404 q 420 404 425 404 q 384 396 401 404 q 379 358 379 377 l 379 330 q 378 286 378 308 l 378 267 q 368 231 377 248 q 325 204 354 204 l 321 204 q 281 237 290 208 q 277 265 277 250 l 277 269 q 277 322 277 296 q 278 370 278 346 l 278 374 q 274 395 278 391 q 252 399 270 399 l 189 399 l 189 398 l 170 398 q 126 399 148 398 l 122 399 q 97 402 109 399 q 68 439 71 411 l 68 444 q 93 483 68 469 q 125 490 109 490 l 130 490 q 134 491 132 490 q 258 500 197 495 q 280 506 275 501 q 286 528 286 511 q 292 593 289 560 q 295 645 293 618 q 296 650 296 647 q 300 677 296 664 q 342 711 310 710 q 386 673 377 709 q 387 654 387 664 l 387 534 q 392 510 387 515 q 417 505 397 505 l 422 505 q 439 506 431 505 q 469 505 454 506 q 497 500 484 505 q 531 455 531 487 l 531 454 q 490 407 528 417 z "},",":{"ha":283,"x_min":68,"x_max":215,"o":"m 159 136 q 173 138 166 138 q 201 126 187 138 q 215 85 215 114 l 214 77 q 210 55 212 66 q 170 -111 191 -28 q 159 -142 167 -127 q 116 -168 142 -168 q 106 -168 111 -168 q 68 -119 70 -159 q 72 -87 68 -103 q 109 41 90 -22 l 127 101 q 159 136 134 127 z "},"-":{"ha":486,"x_min":68,"x_max":418,"o":"m 385 377 q 418 329 418 361 q 406 299 417 312 q 376 283 394 287 q 351 282 364 282 l 297 282 l 297 281 l 275 283 q 227 286 251 283 q 155 290 191 290 q 127 290 141 290 l 121 290 q 102 291 111 290 q 68 328 72 298 l 68 334 q 96 374 68 363 q 128 381 111 380 q 195 385 161 385 q 300 384 247 385 q 349 383 324 384 l 352 383 q 385 377 369 383 z "},".":{"ha":229,"x_min":68,"x_max":161,"o":"m 121 104 q 150 89 138 102 q 161 60 161 77 l 161 58 q 144 22 159 37 q 111 8 130 8 l 109 8 q 79 23 90 9 q 68 52 68 35 l 68 56 q 85 91 70 77 q 117 104 100 104 l 121 104 z "},"/":{"ha":595,"x_min":68,"x_max":528,"o":"m 503 1048 q 522 1031 515 1043 q 528 1009 528 1021 l 528 1004 q 517 964 524 984 l 454 791 l 395 627 q 176 -14 278 309 q 175 -16 175 -15 q 151 -62 170 -41 q 117 -77 134 -77 q 97 -74 111 -77 q 72 -42 82 -70 q 69 -31 71 -37 q 68 -23 69 -27 q 71 -11 70 -17 q 79 19 75 4 l 98 77 q 168 289 133 184 q 367 844 262 568 q 418 966 391 905 q 436 1009 427 988 q 450 1035 441 1023 q 474 1050 459 1047 q 485 1052 479 1052 q 503 1048 494 1052 z "},":":{"ha":232,"x_min":68,"x_max":164,"o":"m 119 523 q 83 540 98 524 q 68 578 68 556 q 81 609 68 597 q 111 621 93 621 q 147 604 132 621 q 162 566 162 588 q 149 536 161 548 q 119 523 136 524 m 127 420 q 155 404 144 418 q 164 377 164 393 l 164 373 q 146 338 162 351 q 115 327 133 327 l 110 327 q 81 343 92 330 q 72 370 72 355 l 72 374 q 90 408 75 395 q 121 420 104 420 l 127 420 z "},";":{"ha":248,"x_min":68,"x_max":180,"o":"m 167 423 q 168 415 168 419 l 168 378 l 168 378 q 167 364 168 371 q 165 332 167 348 q 158 304 164 317 q 117 277 145 277 l 111 277 q 72 309 82 281 q 68 330 68 319 q 68 338 68 334 q 78 412 73 374 q 83 432 79 422 q 101 454 89 446 q 124 461 112 461 l 128 461 q 167 423 159 456 m 136 618 q 168 604 155 617 q 180 574 180 591 l 180 572 q 165 541 178 553 q 132 529 151 529 q 100 542 113 530 q 88 572 88 554 l 88 574 q 103 605 90 593 q 136 618 117 618 z "},"<":{"ha":503,"x_min":68,"x_max":435,"o":"m 414 309 q 435 269 435 291 q 430 246 435 258 q 387 220 414 220 q 370 222 378 220 q 352 229 361 224 q 347 231 349 230 l 310 248 q 202 296 256 272 q 139 330 170 311 q 90 374 110 347 q 68 441 68 404 q 91 511 69 479 q 143 570 113 545 q 250 664 196 618 q 273 681 261 674 q 295 686 285 686 q 326 671 312 686 q 337 646 336 660 l 337 642 q 331 621 337 631 q 307 593 321 606 q 307 592 307 592 q 259 544 283 568 l 203 488 q 176 456 189 473 q 170 442 170 449 q 179 427 170 434 q 210 406 193 414 q 253 385 231 395 q 267 379 260 382 l 309 360 q 385 326 347 343 q 414 309 400 319 z "},"=":{"ha":410,"x_min":68,"x_max":342,"o":"m 300 428 q 342 382 337 419 l 342 381 q 310 334 342 349 q 277 328 294 328 l 197 328 l 197 326 l 177 325 l 127 321 q 119 320 123 320 q 94 326 106 320 q 68 361 71 336 q 68 368 68 364 q 90 403 68 391 q 117 412 102 410 q 275 429 195 425 q 285 429 279 429 q 300 428 292 429 m 106 605 q 140 608 123 608 q 154 608 147 608 q 161 607 157 607 q 190 604 176 606 q 264 597 227 600 q 293 590 279 596 q 321 545 321 574 l 321 538 q 308 511 319 523 q 280 497 296 500 q 268 496 274 496 q 247 498 258 496 q 141 514 194 506 l 123 517 q 122 517 123 517 q 102 522 112 518 q 81 537 89 526 q 73 563 73 549 q 82 589 73 578 q 106 605 92 601 z "},">":{"ha":410,"x_min":68,"x_max":342,"o":"m 250 618 q 311 568 285 599 q 342 471 340 534 q 321 408 341 446 q 275 344 301 373 q 168 221 222 282 q 146 201 159 210 q 119 192 133 192 q 92 201 105 192 q 71 240 71 216 q 73 256 71 248 q 92 288 79 274 q 132 334 112 311 q 187 398 159 366 q 188 399 188 399 q 231 454 211 425 q 240 481 240 469 q 239 491 240 484 q 222 513 238 499 q 179 547 202 531 l 141 572 q 103 597 122 585 q 78 619 89 607 q 68 646 68 631 q 73 666 68 655 q 111 690 87 690 q 118 689 115 690 q 145 679 132 686 q 250 618 198 649 z "},"?":{"ha":676,"x_min":68,"x_max":608,"o":"m 458 989 q 576 903 537 964 q 608 785 608 850 q 607 761 608 773 q 573 631 600 694 q 497 483 541 555 q 460 422 479 453 q 429 373 444 397 q 382 282 401 329 q 359 182 363 235 l 359 178 q 308 132 349 132 l 304 132 q 259 187 261 138 q 280 298 261 243 q 323 392 297 347 q 375 477 349 435 q 406 528 391 503 q 480 673 449 597 q 505 766 499 718 q 505 783 505 774 q 399 898 505 882 q 382 899 391 899 l 376 899 q 207 825 275 897 q 175 777 187 804 q 166 743 166 759 q 167 731 166 741 q 187 706 168 721 q 196 697 192 703 q 207 667 207 682 q 196 640 207 653 q 170 625 186 628 q 163 625 167 625 q 139 631 151 625 q 68 747 68 674 q 69 767 68 757 q 108 863 77 820 q 314 995 185 969 q 375 1002 345 1002 q 458 989 417 1002 m 304 110 q 337 92 324 107 q 348 64 348 79 l 348 58 q 332 30 345 41 q 303 20 319 20 l 301 20 q 268 36 281 22 q 255 68 255 50 l 255 70 q 271 100 256 89 q 300 110 283 110 l 304 110 z "},"@":{"ha":841,"x_min":68,"x_max":773,"o":"m 644 808 q 772 614 762 747 q 773 590 773 602 q 702 375 773 472 q 646 326 680 343 q 603 315 624 315 q 536 348 566 315 q 503 414 512 377 q 494 451 498 431 q 489 474 492 461 q 475 456 481 464 q 456 431 465 442 q 400 374 431 399 q 356 351 380 359 q 320 346 337 346 q 233 404 264 346 q 224 427 228 414 q 218 474 218 450 q 234 554 218 507 q 295 637 250 602 q 372 665 333 665 q 443 643 407 665 l 452 636 l 456 633 q 467 638 463 634 q 475 646 471 642 q 482 654 478 650 q 522 669 503 669 q 547 664 530 669 q 576 627 564 659 q 586 565 585 597 q 593 481 589 523 q 594 473 594 477 q 606 430 595 450 l 610 429 q 617 432 614 429 q 624 439 621 435 q 671 590 671 508 q 671 609 671 600 q 601 715 665 682 q 460 749 533 749 q 418 746 439 749 q 337 726 376 743 q 267 682 298 710 q 182 543 209 631 q 169 461 169 503 q 186 360 169 412 q 262 256 210 298 q 365 219 307 222 l 373 219 q 472 252 427 219 l 475 253 q 503 273 488 264 q 532 280 519 280 q 570 259 553 280 q 579 231 579 245 q 563 195 579 212 q 424 122 505 138 q 370 118 396 118 q 143 233 233 118 q 68 451 68 331 q 69 488 68 469 q 174 733 80 627 q 355 838 248 814 q 458 850 407 850 q 606 824 532 850 q 644 808 626 817 m 400 528 q 403 539 403 534 q 401 547 403 542 q 393 558 399 552 q 378 566 387 566 q 367 562 373 566 q 337 534 348 553 q 320 479 321 505 q 319 473 320 475 q 320 467 319 469 l 320 464 q 322 457 321 460 q 327 453 323 454 q 333 454 330 453 q 338 456 336 454 q 400 528 376 486 z "},"A":{"ha":733,"x_min":0,"x_max":672,"o":"m 70 234 l 64 235 l 58 234 q 45 235 52 234 q 0 276 3 240 l 0 278 q 38 323 0 313 q 79 332 58 330 q 110 359 105 333 q 143 501 125 431 q 252 861 189 684 q 286 943 267 903 q 319 990 297 970 q 370 1010 345 1010 q 421 988 395 1010 q 457 932 446 964 q 495 813 481 874 q 570 448 539 632 l 576 418 l 580 395 q 597 380 583 381 l 608 378 q 630 376 619 378 q 672 331 669 366 l 672 328 q 635 281 672 294 q 615 276 626 277 q 605 270 607 275 q 604 264 604 267 q 604 258 604 261 l 621 176 l 633 115 q 641 70 637 92 q 642 62 642 66 q 633 33 642 47 q 593 11 618 11 q 579 11 592 11 q 549 36 566 12 q 537 75 540 54 l 537 75 l 502 252 q 494 271 499 267 q 481 275 491 275 l 475 275 q 324 264 399 270 q 265 257 294 261 q 208 251 237 254 q 184 228 186 249 q 155 96 170 162 q 143 44 149 71 q 140 31 142 37 q 135 7 138 19 q 90 -33 122 -33 l 84 -33 q 47 27 47 -28 l 47 35 q 52 68 50 51 q 72 193 62 127 l 73 198 l 77 225 q 75 231 77 229 q 70 234 73 233 m 218 376 q 216 367 216 371 q 218 360 216 362 q 231 357 221 357 l 234 357 l 463 376 q 477 389 477 376 q 477 396 477 393 q 453 528 465 462 q 387 825 426 677 q 385 832 386 829 q 368 872 382 850 q 347 825 353 847 l 344 819 q 258 538 296 680 q 218 376 237 458 z "},"B":{"ha":651,"x_min":0,"x_max":590,"o":"m 14 586 q 5 819 9 703 q 1 924 3 871 q 0 929 0 927 l 0 941 q 62 1011 0 1003 q 181 1022 122 1022 q 259 1018 205 1022 q 393 978 313 1015 q 484 920 444 956 q 548 783 548 858 q 531 702 548 744 q 424 566 495 620 q 393 543 410 555 q 376 529 385 536 q 393 522 385 526 q 422 511 408 516 q 509 461 469 492 q 590 297 590 391 q 580 228 590 264 q 487 92 553 146 q 298 7 404 26 q 193 -3 245 -3 q 107 3 150 -3 q 90 5 98 5 q 62 9 75 7 q 18 63 18 21 q 19 72 18 67 q 22 119 22 95 l 22 126 q 16 512 22 319 q 14 586 14 549 m 440 386 q 358 426 402 413 q 194 449 284 449 l 169 449 q 135 451 155 450 l 132 451 q 123 449 125 451 q 120 440 120 447 l 120 437 q 121 388 120 412 q 123 329 122 358 l 124 222 q 125 132 124 177 l 125 128 q 130 106 125 111 q 156 100 135 101 q 195 98 176 98 q 321 117 259 98 q 424 172 378 134 q 479 248 462 203 q 488 297 488 274 q 440 386 488 351 m 97 911 l 97 902 q 98 899 97 901 q 112 657 109 779 q 116 580 113 619 q 118 543 117 562 q 290 600 209 562 q 394 675 349 629 q 437 741 422 704 q 446 781 446 762 q 416 844 446 816 q 349 886 387 871 q 233 918 292 911 q 140 924 186 924 q 112 923 126 924 q 107 922 110 923 q 104 921 105 922 q 97 911 99 917 z "},"C":{"ha":532,"x_min":0,"x_max":471,"o":"m 67 149 q 20 296 35 220 q 0 501 0 399 q 32 756 0 629 q 83 880 48 822 q 180 975 119 941 q 266 995 222 995 q 320 988 282 995 q 401 933 358 981 q 418 909 412 922 q 422 890 422 899 q 408 860 422 873 q 380 848 395 848 q 361 852 371 848 q 338 869 348 859 q 276 895 311 895 q 253 894 273 895 q 202 867 232 893 q 153 795 170 836 q 117 675 127 736 q 102 507 102 586 q 132 264 102 378 q 165 178 144 220 q 197 134 178 154 q 237 114 216 114 q 271 126 254 114 q 323 185 304 150 q 363 275 348 228 q 364 277 364 276 q 367 284 366 280 q 378 311 372 298 q 421 336 393 336 l 424 336 q 470 295 462 332 q 471 286 471 290 q 467 262 471 273 q 406 125 444 189 q 318 36 372 70 q 237 12 280 12 q 210 14 224 12 q 130 57 164 24 q 67 149 90 97 z "},"D":{"ha":608,"x_min":0,"x_max":547,"o":"m 35 7 q 6 31 16 14 q 0 52 0 40 q 3 66 0 58 q 13 137 13 102 q 12 153 13 144 l 12 275 q 8 663 12 469 q 7 750 7 707 q 9 881 7 816 q 10 943 9 912 q 21 983 11 966 q 45 1015 31 1000 q 77 1027 58 1027 l 80 1027 q 268 992 180 1025 q 427 888 355 960 q 513 736 488 822 q 547 496 546 636 l 547 492 q 505 268 547 390 q 418 122 475 186 q 160 -1 313 11 q 119 -3 140 -3 q 73 0 96 -3 q 35 7 54 2 m 108 927 q 104 914 104 920 l 104 901 q 104 894 104 897 q 106 840 105 867 q 109 739 109 789 l 112 538 q 115 292 115 416 q 113 128 115 210 l 113 116 q 118 102 114 106 q 129 100 121 100 l 132 100 q 248 123 194 101 q 344 192 302 145 q 414 315 391 246 q 445 511 445 411 q 443 562 445 536 q 406 734 438 650 q 305 859 375 812 q 144 926 231 907 q 140 926 142 926 q 124 929 132 928 q 119 930 122 930 q 108 927 114 930 z "},"E":{"ha":581,"x_min":0,"x_max":520,"o":"m 71 -13 q 1 65 7 2 q 0 94 0 80 q 1 123 0 109 q 5 201 3 162 q 11 278 9 239 q 25 753 25 515 l 25 871 q 26 913 26 892 l 26 922 q 20 971 26 947 q 18 985 18 979 q 55 1027 18 1017 q 69 1029 62 1029 l 76 1030 q 342 1045 209 1045 l 364 1045 q 435 1044 399 1044 l 456 1044 q 489 1038 473 1044 q 520 992 520 1024 q 519 985 520 989 q 478 944 513 951 q 465 943 471 943 l 453 943 l 239 941 q 164 940 202 941 l 139 940 q 124 935 128 939 q 121 922 121 930 l 121 918 q 127 749 127 833 q 127 697 127 723 q 126 630 126 663 l 126 628 q 127 613 126 621 q 142 599 127 599 l 143 599 q 153 600 148 600 q 222 604 187 601 q 298 606 260 606 q 398 602 348 606 q 438 591 419 601 q 460 569 453 583 q 466 547 466 559 q 465 539 466 543 q 422 500 456 505 q 407 499 414 499 q 392 500 399 499 q 389 500 390 500 q 239 505 314 505 l 165 505 q 157 505 161 505 q 126 498 142 505 q 119 416 119 457 q 119 398 119 407 q 103 135 115 266 q 101 110 101 120 q 105 92 101 96 q 121 87 109 87 q 148 91 131 87 q 199 99 173 94 q 234 105 216 102 q 405 122 319 118 q 418 123 411 123 q 446 119 432 123 q 486 71 486 107 l 486 68 q 444 22 483 32 q 415 20 430 20 q 186 -6 300 16 q 121 -16 154 -12 q 103 -17 112 -17 q 71 -13 87 -17 z "},"F":{"ha":554,"x_min":0,"x_max":493,"o":"m 37 393 q 0 432 4 401 l 0 435 q 31 477 0 464 q 44 482 37 480 q 50 484 47 483 q 65 489 60 486 q 71 496 69 491 q 72 512 72 501 q 79 826 76 669 q 79 876 79 851 q 80 926 80 901 l 80 929 q 66 947 80 943 q 31 993 31 958 l 31 994 q 76 1036 33 1027 q 304 1064 189 1062 q 391 1062 348 1063 q 425 1061 408 1062 q 462 1054 444 1061 q 493 1008 493 1039 q 492 1000 493 1004 q 450 960 485 966 q 433 960 441 960 q 415 960 424 960 l 412 960 q 326 962 370 962 q 228 960 277 962 q 186 956 208 958 q 175 942 175 954 l 175 941 l 176 926 q 178 899 178 912 l 178 838 l 178 777 l 178 732 l 180 732 q 178 689 179 711 q 175 556 177 623 l 175 531 q 179 515 175 519 q 188 513 182 513 q 195 513 191 513 q 220 517 207 515 q 269 523 244 520 q 411 530 340 530 q 452 526 432 530 q 490 481 487 516 l 490 478 q 455 431 490 444 q 425 427 440 427 l 397 427 q 197 412 297 427 q 175 404 180 409 q 170 384 170 399 q 168 351 169 367 q 165 296 166 323 q 159 195 162 245 q 153 75 157 135 q 149 29 153 52 q 99 -12 138 -12 l 98 -12 q 52 29 62 -9 q 50 47 50 38 q 50 58 50 53 l 50 62 q 62 280 56 172 l 68 375 l 68 378 q 54 392 68 391 l 45 392 q 37 393 41 392 z "},"G":{"ha":597,"x_min":0,"x_max":536,"o":"m 88 81 q 20 256 37 162 q 0 449 0 357 l 0 455 q 45 777 0 625 q 96 900 64 842 q 164 985 123 949 q 286 1031 222 1031 q 343 1025 298 1031 q 439 943 388 1018 q 476 817 476 885 q 473 792 476 804 q 433 760 463 762 l 432 760 q 389 790 400 760 q 383 821 385 806 q 382 831 382 827 q 333 912 373 882 q 286 929 310 929 q 243 917 265 929 q 193 863 212 896 q 145 756 162 812 q 106 564 115 662 q 101 465 101 514 q 127 244 101 353 q 166 148 140 193 q 216 92 185 115 q 264 76 241 76 q 319 101 293 76 q 355 162 345 127 q 372 282 372 222 q 370 332 372 307 q 360 401 366 367 q 359 406 360 404 q 343 422 357 422 l 340 422 q 290 420 315 422 q 273 419 281 420 q 263 418 268 418 q 236 423 250 418 q 205 464 207 435 q 231 504 206 492 q 255 510 242 509 q 467 525 361 525 l 471 525 q 505 519 488 525 q 536 473 534 505 q 526 445 536 458 q 500 427 516 432 q 488 425 494 425 l 479 423 q 465 417 468 422 q 463 408 463 414 q 463 401 463 405 l 467 363 q 473 301 471 332 q 474 274 474 288 q 454 136 474 203 q 410 51 440 89 q 354 1 387 20 q 264 -26 309 -26 q 182 -5 223 -26 q 88 81 124 26 z "},"H":{"ha":704,"x_min":0,"x_max":659,"o":"m 32 419 q 0 458 0 429 l 0 463 q 31 503 2 492 q 33 503 33 503 q 43 506 38 505 q 55 514 52 508 q 58 528 58 519 q 58 549 58 538 q 59 582 59 566 l 59 783 q 67 1004 59 894 l 67 1006 q 71 1034 68 1020 q 112 1063 81 1062 q 153 1034 144 1063 q 159 994 159 1014 l 159 989 q 159 825 159 907 l 159 768 l 160 768 l 160 562 q 161 529 160 546 q 172 518 161 519 q 184 517 178 517 l 414 526 q 435 526 425 526 q 447 527 441 527 q 463 543 463 528 q 464 574 464 558 l 464 742 q 465 985 464 863 q 464 991 465 989 q 465 1015 464 1004 q 503 1054 472 1048 l 509 1054 q 551 1023 539 1054 q 555 998 555 1010 q 557 958 557 978 q 564 840 562 899 q 565 654 565 747 l 565 566 q 566 543 565 555 q 569 530 566 533 q 583 525 573 526 l 594 524 q 616 521 606 523 q 659 471 659 509 l 659 467 q 608 422 654 427 l 600 422 q 570 416 575 422 q 565 391 565 411 l 565 379 q 564 285 564 332 q 570 96 564 191 q 571 77 571 87 q 570 63 571 70 q 520 12 564 14 q 471 59 478 14 q 463 201 465 130 q 463 321 463 261 q 463 376 463 349 q 463 410 463 393 q 447 425 462 425 l 437 425 l 359 424 q 216 418 288 421 l 184 417 q 163 413 168 417 q 160 397 160 410 l 160 393 l 159 179 q 159 125 159 152 l 159 50 q 155 8 159 28 q 110 -28 144 -26 l 109 -28 q 60 7 73 -28 q 56 39 56 23 l 56 388 q 53 407 56 399 q 32 419 49 416 z "},"I":{"ha":285,"x_min":0,"x_max":224,"o":"m 188 73 q 202 40 202 57 q 197 19 202 34 q 163 -4 193 4 q 49 -18 107 -18 l 43 -18 q 0 20 7 -14 l 0 25 q 28 67 0 53 q 44 72 36 70 q 55 74 50 73 l 56 74 q 70 90 70 77 l 70 92 q 71 109 71 100 l 71 132 q 75 294 71 212 q 77 355 76 324 q 79 452 79 404 q 82 547 81 500 q 85 671 84 610 q 94 899 87 785 q 94 913 94 906 l 94 915 q 95 929 95 923 q 94 940 95 935 q 86 947 93 945 q 65 951 80 949 q 15 997 15 958 q 62 1041 17 1033 q 94 1043 78 1043 l 96 1043 q 116 1044 106 1044 q 125 1043 121 1043 l 125 1044 l 139 1044 l 155 1045 l 171 1044 q 220 1013 207 1044 q 224 994 224 1002 q 203 957 224 972 q 191 941 193 950 q 189 927 189 935 l 189 921 q 190 823 190 871 q 187 650 190 736 q 186 611 186 631 q 179 387 183 499 q 174 252 177 319 l 173 168 l 172 118 l 172 113 q 188 73 172 92 z "},"J":{"ha":520,"x_min":0,"x_max":459,"o":"m 60 68 q 18 155 31 107 q 0 294 0 224 q 5 366 0 330 q 17 446 9 406 q 20 465 19 455 q 30 497 23 481 q 75 527 45 527 q 84 526 79 527 q 112 511 101 524 q 124 479 123 498 l 124 475 q 123 459 124 467 q 121 454 122 457 l 116 420 q 106 359 111 390 q 102 292 102 326 q 111 201 102 247 q 130 146 117 173 q 181 100 149 109 q 205 96 193 96 q 250 106 227 96 q 321 186 300 132 q 345 296 341 239 q 353 484 353 389 l 353 600 l 355 600 q 356 668 355 634 q 355 851 356 760 q 353 914 355 883 q 347 933 352 928 q 330 937 342 937 l 326 937 l 276 935 q 234 933 255 934 q 155 932 195 932 q 126 936 140 932 q 94 976 97 946 q 103 1003 94 991 q 127 1019 111 1015 q 151 1023 139 1023 q 171 1025 161 1025 q 297 1037 234 1031 q 330 1038 313 1038 q 351 1038 340 1038 q 448 960 427 1034 q 454 919 453 940 q 459 812 459 865 q 458 777 459 794 l 453 409 q 437 222 453 315 q 393 104 426 159 q 223 -4 334 9 q 201 -5 212 -5 q 60 68 115 -5 z "},"K":{"ha":569,"x_min":0,"x_max":536,"o":"m 44 1 q 1 41 9 7 q 0 59 0 50 q 1 71 0 64 q 3 127 1 99 q 5 187 5 157 q 10 303 8 245 q 14 405 12 354 q 19 724 19 565 l 19 760 q 20 970 19 865 l 20 975 q 22 999 20 987 q 65 1037 31 1035 q 109 1003 98 1036 q 112 979 111 991 l 112 975 q 121 767 121 871 q 120 715 121 741 l 120 627 q 119 594 119 610 l 119 556 q 136 568 130 562 q 146 581 142 575 l 151 587 l 286 766 q 378 887 332 827 q 378 888 378 887 q 405 919 391 905 q 437 933 418 933 q 446 932 441 933 q 475 910 467 926 q 480 890 480 901 q 477 873 480 882 q 463 848 472 860 l 459 841 q 237 532 355 681 q 196 473 215 504 q 189 453 189 461 q 189 448 189 452 q 200 433 189 443 q 241 397 219 414 q 309 351 275 374 l 348 323 q 485 220 419 275 q 522 186 505 205 q 536 150 536 168 q 524 118 536 134 q 488 102 507 102 q 455 113 473 102 q 446 121 450 116 q 248 269 352 201 q 233 279 241 274 q 128 359 177 315 q 123 361 127 361 q 119 362 121 361 q 113 332 113 347 l 113 314 q 105 130 109 222 q 103 80 104 105 q 94 31 103 54 q 73 7 87 16 q 48 1 61 1 l 44 1 z "},"L":{"ha":500,"x_min":0,"x_max":439,"o":"m 77 -8 q 2 71 12 5 q 0 102 0 86 q 1 121 0 111 q 7 251 3 186 q 16 421 12 336 q 18 511 18 466 q 20 589 19 550 q 24 724 23 656 q 34 964 25 844 q 35 972 35 968 q 37 989 35 981 q 78 1025 46 1022 l 80 1025 q 105 1017 93 1025 q 121 993 117 1008 q 125 964 125 979 q 127 838 127 901 q 122 584 127 711 q 121 543 122 564 q 119 454 121 498 q 112 322 115 388 q 103 153 107 238 q 102 132 102 141 q 100 114 100 121 q 106 94 100 98 q 123 90 110 90 q 152 93 134 90 q 165 95 158 94 q 191 98 178 96 q 326 106 258 106 q 366 106 345 106 q 403 100 385 105 q 439 52 439 88 l 439 51 q 398 5 436 14 q 378 3 388 3 l 373 3 q 323 5 348 5 q 223 -1 273 5 l 185 -5 q 171 -7 178 -6 q 119 -11 145 -9 l 112 -11 q 77 -8 94 -11 z "},"M":{"ha":726,"x_min":0,"x_max":665,"o":"m 9 29 q 3 79 5 54 q 0 237 0 158 q 3 380 0 309 q 12 643 6 511 q 25 904 18 774 q 26 915 26 909 q 31 951 26 934 q 75 996 45 989 q 86 997 81 997 q 133 975 111 997 q 159 937 149 958 q 202 851 182 895 q 264 720 233 785 l 298 646 q 313 616 304 631 q 319 612 315 612 l 321 612 q 326 616 324 612 q 346 652 336 634 q 386 733 366 693 q 471 903 428 819 q 513 975 490 940 q 541 1006 525 993 q 581 1021 560 1021 q 604 1017 587 1021 q 634 984 620 1013 q 646 931 645 958 q 646 910 646 920 q 648 851 648 881 q 648 773 648 812 l 648 734 q 662 203 648 469 q 664 153 663 178 q 665 83 665 119 l 665 36 q 663 7 665 21 q 645 -21 658 -11 q 614 -32 631 -32 q 568 3 581 -31 q 564 28 564 16 q 564 86 564 57 q 557 274 564 180 q 552 387 554 331 q 546 768 546 578 q 545 795 546 782 q 545 808 545 802 l 544 808 q 536 809 541 809 q 530 798 534 803 q 517 772 524 785 q 487 710 502 741 q 433 600 460 654 q 396 534 416 566 q 363 496 384 511 q 317 479 340 479 q 265 502 290 479 q 230 553 243 524 q 180 658 205 606 q 169 682 175 670 q 152 720 160 701 q 138 750 144 735 q 136 753 137 752 q 132 761 134 758 q 125 767 130 764 q 119 760 119 764 l 119 739 q 108 449 113 594 q 102 237 104 342 q 99 98 100 167 l 99 95 q 95 31 98 62 q 53 -8 87 -6 q 24 2 37 -8 q 9 29 12 12 z "},"N":{"ha":644,"x_min":0,"x_max":583,"o":"m 14 376 l 9 542 q 1 757 5 649 q 0 925 0 841 l 0 996 q 1 1016 0 1006 q 42 1057 8 1053 l 43 1057 q 90 1019 78 1057 q 92 1000 92 1009 l 92 994 q 110 564 105 779 q 116 378 113 471 l 119 296 q 124 295 122 295 q 130 298 128 295 q 134 305 132 300 q 134 309 134 307 q 142 328 138 319 q 249 588 196 458 q 397 907 317 750 q 427 957 410 932 q 452 985 437 972 q 495 1001 473 1001 q 519 997 502 1001 q 553 961 536 993 q 561 933 559 948 q 562 924 562 928 q 568 867 568 896 q 569 763 569 815 q 568 608 569 686 q 567 490 567 549 q 570 256 567 373 q 578 127 573 191 l 581 89 q 582 81 581 85 q 583 68 583 75 q 581 52 583 60 q 537 14 570 16 l 533 14 q 486 47 498 14 q 479 93 480 70 q 465 451 465 272 q 466 557 465 504 q 468 709 467 633 q 469 774 468 742 l 469 804 q 454 792 458 798 q 447 779 450 785 q 445 774 446 777 q 311 471 372 625 l 258 341 q 176 138 217 239 q 147 73 163 105 q 125 38 138 54 q 81 16 107 16 q 69 17 75 16 q 26 63 33 26 q 20 125 20 94 q 17 241 18 183 q 14 376 16 309 z "},"O":{"ha":652,"x_min":0,"x_max":607,"o":"m 115 100 q 33 262 57 173 q 0 494 0 378 q 56 791 0 644 q 125 915 81 858 q 210 994 160 962 q 319 1027 266 1027 q 441 983 381 1027 q 523 890 491 945 q 591 707 572 804 q 607 541 606 627 q 551 242 606 389 q 469 102 522 165 q 378 29 431 56 q 288 7 333 7 q 183 39 235 7 q 115 100 144 63 m 140 724 q 102 489 102 608 q 117 340 102 415 q 167 203 131 268 q 225 133 189 162 q 288 109 256 109 q 346 127 317 109 q 410 192 385 153 q 467 308 447 246 q 504 538 504 420 l 504 549 q 490 692 504 621 q 439 833 475 766 q 384 900 418 871 q 319 924 352 924 q 260 905 290 924 q 201 847 224 882 q 140 724 161 790 z "},"P":{"ha":652,"x_min":0,"x_max":597,"o":"m 18 601 l 14 693 q 5 880 10 787 q 3 925 5 903 q 0 956 1 940 l 0 958 q 37 1009 0 998 q 141 1032 89 1022 q 247 1043 193 1042 l 258 1043 q 535 884 443 1043 q 597 659 597 772 q 547 451 597 555 q 433 317 503 366 q 270 250 363 268 q 191 242 231 242 q 149 244 170 242 l 146 244 q 135 241 138 244 q 132 227 132 238 l 132 165 q 124 56 132 110 q 123 40 123 47 q 113 8 121 23 q 92 -12 106 -5 q 71 -17 81 -17 q 64 -16 67 -17 q 22 24 30 -10 q 22 37 22 31 q 22 50 22 43 q 31 250 31 149 q 31 300 31 275 l 31 309 q 26 399 28 353 q 18 601 22 500 m 115 929 q 102 923 104 927 q 99 915 99 920 q 100 909 99 912 q 103 873 101 891 l 107 835 q 123 527 119 681 q 130 392 126 459 q 130 380 130 385 q 132 358 130 365 q 140 350 134 352 q 163 346 147 347 q 176 344 169 345 q 188 343 182 343 l 189 343 q 377 402 299 345 q 484 572 456 460 q 494 658 494 615 q 459 812 494 736 q 420 871 444 845 q 281 939 365 935 q 261 940 271 940 q 241 939 251 940 l 228 939 q 197 938 212 939 q 115 929 154 937 z "},"Q":{"ha":726,"x_min":0,"x_max":675,"o":"m 99 140 q 21 324 43 225 q 0 503 0 414 q 50 772 0 639 q 139 927 81 857 q 294 1029 201 1002 q 352 1036 323 1036 q 463 1006 410 1036 q 570 909 528 970 q 657 707 635 817 q 675 539 675 623 q 629 279 675 408 q 524 100 595 178 q 517 91 521 96 l 513 85 q 525 66 519 75 l 555 18 q 556 16 555 17 q 571 -16 566 2 q 572 -28 572 -22 q 549 -70 572 -54 q 524 -77 536 -77 q 492 -64 507 -77 q 471 -38 479 -52 q 455 -14 463 -26 q 441 7 448 -3 q 428 23 433 21 q 425 24 427 24 q 408 20 418 24 q 326 5 368 5 l 323 5 q 207 37 260 5 q 99 140 141 77 m 142 728 q 102 501 102 616 q 119 349 102 425 q 180 203 136 271 q 248 131 207 159 q 326 106 284 106 q 352 109 338 106 q 368 121 368 111 q 364 132 368 126 l 342 170 q 323 205 332 188 q 322 207 322 206 q 309 235 314 220 q 307 250 307 243 q 329 286 307 273 q 351 292 340 292 q 382 277 368 292 q 401 252 393 266 q 405 248 403 250 q 438 197 421 224 q 454 174 446 186 q 534 313 511 240 q 574 538 574 424 q 566 642 574 590 q 511 813 554 732 q 444 898 486 862 q 351 935 399 935 q 267 907 309 935 q 210 852 234 884 q 142 728 165 795 z "},"R":{"ha":562,"x_min":0,"x_max":518,"o":"m 358 110 q 129 298 254 218 q 119 301 123 301 q 111 290 113 301 q 111 265 111 278 q 102 44 110 155 l 102 40 q 102 38 102 39 l 102 35 q 94 -5 102 14 q 48 -34 78 -34 l 43 -34 q 1 7 9 -28 q 0 29 0 18 l 0 37 q 3 97 1 66 q 5 157 4 127 q 7 193 6 176 q 9 295 9 244 q 8 805 9 550 q 7 927 8 866 l 7 931 q 14 963 7 951 q 41 982 21 975 q 187 1017 113 1008 q 244 1021 216 1021 q 337 1012 290 1021 q 514 829 485 979 q 518 777 518 802 q 500 672 518 724 q 349 451 456 540 q 250 382 302 412 q 229 370 240 377 q 216 363 223 367 q 230 353 224 357 q 251 337 241 345 q 416 196 339 273 q 486 109 457 157 q 503 71 497 90 q 505 58 505 64 q 477 15 505 30 q 454 10 465 10 q 416 29 433 10 q 405 47 410 37 q 358 110 386 82 m 115 438 q 121 437 119 437 q 132 439 126 437 q 145 444 138 441 q 151 447 149 446 q 310 553 241 485 q 408 716 381 622 q 416 777 416 746 q 413 816 416 796 q 324 911 399 891 q 279 918 302 916 q 240 919 260 919 q 129 910 184 919 q 117 907 123 909 l 117 907 q 103 890 103 904 l 103 876 q 105 848 104 862 q 111 705 111 777 l 111 682 q 112 479 111 581 l 112 463 q 115 438 112 450 z "},"S":{"ha":517,"x_min":0,"x_max":457,"o":"m 235 -33 q 207 -35 220 -35 q 98 -2 153 -35 q 22 107 43 30 q 13 170 15 138 l 13 175 q 14 190 13 182 q 57 231 22 224 l 61 231 q 87 223 74 231 q 107 200 100 216 q 113 174 111 187 q 115 168 114 170 q 117 154 116 161 q 119 134 117 144 q 204 68 138 68 q 303 104 264 71 q 353 184 341 137 q 356 216 356 200 q 341 279 356 248 q 294 343 323 316 q 223 406 259 375 l 212 415 q 181 441 197 428 q 133 483 157 462 q 37 603 74 534 q 0 743 0 675 q 63 917 0 833 q 235 1006 131 1004 q 387 931 334 1006 q 430 828 421 885 q 431 814 431 821 q 425 779 431 796 q 409 754 420 763 q 382 745 397 745 q 340 784 348 748 q 339 795 339 789 l 339 805 q 285 891 331 860 q 238 905 262 905 q 205 899 222 905 q 141 853 165 886 q 102 743 102 800 q 120 663 102 704 q 169 591 138 623 q 261 506 212 545 q 271 498 267 502 q 372 410 324 457 q 422 343 401 378 q 452 266 444 308 q 457 214 457 239 q 374 31 457 109 q 235 -33 315 -22 z "},"T":{"ha":502,"x_min":0,"x_max":593,"o":"m 243 886 l 227 886 q 218 886 223 886 l 184 886 q 72 886 128 886 l 62 886 q 31 891 47 886 q 0 935 0 904 l 0 936 q 37 977 4 968 q 53 978 45 978 l 57 978 q 115 981 86 980 l 471 1000 q 509 1001 490 1001 l 529 1001 q 562 994 546 1000 q 593 949 591 982 q 583 920 593 933 q 557 903 574 907 q 518 899 538 899 l 516 899 q 439 896 477 897 q 387 894 413 895 q 361 892 374 894 q 351 880 352 890 l 351 847 q 368 153 368 500 q 369 66 368 110 l 369 52 q 368 24 369 37 q 318 -23 359 -21 q 269 24 277 -20 q 267 50 267 37 l 267 58 q 267 152 267 105 l 265 347 q 262 420 264 380 q 260 464 262 440 l 260 522 q 258 857 259 683 q 257 873 258 865 q 243 886 256 886 z "},"U":{"ha":612,"x_min":0,"x_max":551,"o":"m 532 985 q 537 956 536 971 q 541 897 539 926 q 551 636 551 767 l 551 606 q 543 440 549 523 q 520 277 537 358 q 478 146 507 209 q 429 68 460 104 q 295 4 372 4 q 237 12 267 4 q 119 88 167 33 q 35 245 59 157 q 9 380 16 312 q 1 552 1 466 q 0 616 0 585 q 15 953 0 785 q 16 955 15 954 q 20 981 16 968 q 60 1011 31 1010 q 102 982 90 1010 q 107 947 107 965 l 107 889 q 104 723 107 806 q 103 689 103 706 l 103 673 q 102 596 102 635 q 109 406 102 501 q 134 266 115 334 q 191 160 152 207 q 254 113 217 128 q 295 105 277 105 q 322 111 306 105 q 356 138 339 117 q 394 208 380 170 q 435 386 427 294 q 448 626 448 506 q 441 866 448 746 q 436 949 438 908 l 436 958 q 437 975 436 966 q 453 1004 440 992 q 483 1017 465 1015 l 485 1017 q 512 1009 499 1017 q 532 985 526 1000 z "},"V":{"ha":747,"x_min":0,"x_max":686,"o":"m 515 420 q 430 165 476 291 q 389 75 413 119 q 351 30 375 48 q 307 14 328 14 q 254 39 279 14 q 222 102 231 67 q 186 231 203 166 q 115 517 151 374 l 52 766 q 28 862 40 814 q 5 949 16 905 q 0 986 0 967 q 31 1025 2 1017 q 43 1027 38 1027 q 77 1010 62 1027 q 92 980 87 997 l 94 973 q 170 721 138 849 q 295 214 232 467 l 298 203 q 314 159 300 182 q 334 199 328 180 q 337 208 336 203 q 452 562 400 383 q 463 602 457 583 q 579 960 515 783 l 581 964 q 592 991 585 978 q 635 1019 610 1019 q 656 1015 645 1019 q 686 969 686 1001 q 684 954 686 962 q 681 941 683 947 q 548 532 607 739 q 515 420 532 475 z "},"W":{"ha":937,"x_min":0,"x_max":876,"o":"m 159 0 q 111 -18 134 -18 q 82 -12 102 -18 q 48 35 62 -5 q 41 89 41 62 q 40 144 40 117 q 37 286 39 215 q 21 615 30 450 q 18 670 20 642 q 9 833 14 751 q 7 862 8 848 q 4 905 5 884 l 1 949 q 1 954 1 951 q 0 965 0 960 q 1 983 0 974 q 40 1021 9 1016 l 44 1021 q 86 991 73 1021 q 91 972 90 982 q 92 967 91 969 q 113 785 108 876 q 134 396 125 590 q 139 261 138 328 q 140 203 140 233 l 140 186 q 141 170 140 178 l 141 169 q 142 164 141 166 q 145 160 142 161 q 149 159 147 159 q 152 160 150 159 q 155 165 153 161 q 160 172 157 168 l 176 201 q 240 322 208 261 q 275 389 258 356 l 283 406 q 324 482 304 444 q 357 525 337 506 q 412 548 383 548 q 460 532 435 548 q 498 493 482 515 q 503 486 500 489 q 551 408 528 448 q 616 290 584 350 q 659 210 637 250 q 664 201 662 205 q 671 187 667 193 q 682 176 675 180 q 689 189 687 182 q 691 202 690 195 q 692 208 692 205 q 753 710 726 458 q 760 783 757 746 q 770 880 766 831 q 773 923 772 902 q 774 947 773 935 q 774 956 774 951 q 777 985 774 970 q 793 1011 781 1001 q 821 1023 805 1021 l 824 1023 q 871 991 857 1023 q 876 960 876 976 l 876 945 q 868 821 876 882 q 821 414 845 617 q 785 144 804 279 q 771 78 779 111 q 768 66 770 72 q 749 25 764 43 q 701 1 727 1 q 663 13 683 1 q 635 43 646 25 q 602 102 618 72 q 549 201 575 151 q 467 352 508 277 q 427 416 448 385 q 425 419 426 418 q 415 427 420 427 q 404 417 409 427 q 384 378 393 398 q 375 361 379 370 q 345 302 359 332 q 271 161 308 231 q 212 66 243 113 q 201 47 206 57 q 159 0 184 20 z "},"X":{"ha":823,"x_min":0,"x_max":792,"o":"m 118 986 q 250 808 188 900 q 342 667 296 737 q 363 637 353 652 l 378 616 l 385 607 q 407 630 400 616 q 413 639 410 635 q 560 842 487 740 q 696 1012 625 930 q 722 1039 707 1027 q 747 1048 734 1048 q 756 1048 749 1048 q 776 1038 764 1048 q 792 1006 792 1024 q 787 985 792 996 q 766 952 778 968 q 764 950 765 951 q 671 822 718 886 q 488 568 579 695 q 477 555 482 561 q 450 508 459 534 l 461 490 q 486 452 473 471 l 593 283 l 720 85 q 734 60 728 73 q 736 42 736 50 q 713 1 736 17 q 688 -7 701 -7 q 652 9 669 -7 q 629 39 640 22 q 579 118 604 78 l 533 190 q 408 383 471 287 q 404 391 406 387 q 386 412 398 404 q 376 407 380 411 q 370 399 373 404 q 368 395 370 397 q 350 367 359 381 q 140 35 239 204 q 109 -16 125 9 l 98 -33 q 76 -58 90 -47 q 49 -66 62 -66 q 21 -56 35 -66 q 3 -31 7 -47 q 0 -16 0 -24 q 3 -1 0 -8 q 17 27 8 14 l 20 33 q 307 485 155 264 q 309 490 308 487 q 315 498 312 494 q 321 512 321 505 q 315 525 321 519 q 304 543 309 534 l 297 553 q 218 672 257 612 q 48 925 133 798 q 44 931 46 928 q 26 961 34 945 q 22 981 22 970 q 25 997 22 986 q 42 1016 28 1007 q 65 1023 52 1023 q 76 1022 67 1023 q 96 1011 85 1021 q 116 989 107 1001 q 118 986 117 987 z "},"Y":{"ha":629,"x_min":0,"x_max":568,"o":"m 79 486 q 33 588 47 532 q 0 838 0 711 l 0 848 q 4 935 1 892 q 6 966 5 950 q 9 990 6 978 q 50 1021 20 1019 q 92 993 79 1021 q 97 961 97 977 l 97 954 q 98 951 98 953 q 107 743 98 847 q 133 608 114 673 q 161 547 142 575 q 225 510 186 510 q 256 515 239 510 q 316 559 292 530 q 377 654 353 602 q 442 843 419 745 q 448 864 445 853 q 453 888 450 876 q 454 890 453 888 q 463 920 457 905 q 512 958 479 958 q 521 957 516 958 q 567 905 560 950 q 568 880 568 892 l 568 867 q 566 816 567 842 q 558 616 562 716 q 543 345 551 481 q 514 181 539 261 q 276 -38 454 7 q 220 -45 248 -45 q 184 -42 203 -45 q 64 51 100 -28 q 46 130 47 90 l 46 138 q 52 211 46 174 q 60 230 54 221 q 101 252 76 252 q 111 251 106 252 q 137 237 126 248 q 149 212 147 227 q 150 195 150 203 l 150 178 q 149 159 150 169 l 149 146 q 150 119 149 132 q 219 57 157 57 q 264 64 242 57 q 417 211 378 98 q 441 338 437 273 q 449 481 446 410 q 452 534 450 508 l 452 559 q 446 560 448 559 q 444 561 445 561 q 436 549 440 555 q 420 527 429 538 q 346 449 389 482 q 254 411 304 418 q 224 409 239 409 q 79 486 136 409 z "},"Z":{"ha":615,"x_min":0,"x_max":554,"o":"m 491 -3 q 442 -1 467 -1 q 331 -9 386 -1 q 291 -13 311 -11 q 242 -18 267 -15 q 99 -27 171 -27 l 96 -27 q 46 -18 70 -27 q 0 47 0 1 q 1 57 0 52 q 15 100 3 81 q 45 155 29 128 q 54 170 49 163 q 92 239 73 205 q 192 418 142 329 q 195 425 194 421 q 207 455 205 437 q 178 464 194 462 q 161 468 170 465 l 151 471 q 130 477 140 473 q 110 496 116 484 q 104 516 104 506 q 105 522 104 519 q 118 548 107 537 q 144 559 129 558 q 155 560 149 560 q 178 558 166 560 q 182 557 180 558 q 205 554 193 556 q 239 550 222 550 q 260 551 250 550 q 271 572 265 562 q 296 617 284 594 q 401 831 349 724 q 419 875 412 852 q 424 889 421 882 q 425 892 425 891 q 423 898 425 895 q 416 901 421 901 q 394 902 405 902 l 348 902 q 128 913 238 902 l 119 914 q 66 922 92 916 q 43 939 51 926 q 35 964 35 950 l 35 966 q 68 1005 39 996 q 85 1008 76 1008 l 95 1009 l 105 1008 q 243 1006 174 1007 l 419 1004 l 424 1004 q 473 998 449 1004 q 532 922 530 981 l 532 918 q 524 864 532 890 q 482 764 507 812 q 412 622 448 692 q 384 566 397 593 q 379 557 381 561 q 370 539 374 548 q 368 532 368 535 q 380 521 368 524 l 411 513 q 453 503 432 508 q 484 490 469 498 q 507 450 507 474 q 505 436 507 444 q 459 400 496 404 q 422 406 440 400 q 373 418 397 412 q 333 427 353 422 q 325 429 328 429 q 305 415 312 429 q 294 393 300 404 q 247 309 271 351 q 139 115 193 212 l 134 107 q 122 77 124 94 q 146 75 135 75 q 170 77 159 75 q 176 77 174 77 q 332 93 254 85 q 363 96 348 95 q 445 100 404 100 q 481 100 463 100 q 522 92 502 100 q 547 71 538 85 q 554 47 554 59 q 553 39 554 43 q 508 -3 547 3 l 491 -3 z "},"[":{"ha":358,"x_min":68,"x_max":290,"o":"m 275 996 q 290 965 290 983 q 288 951 290 958 q 249 920 279 922 q 222 923 235 920 q 208 925 215 924 q 201 926 204 926 q 185 907 185 926 q 184 880 184 893 l 184 865 l 187 798 q 191 694 189 746 q 191 614 191 654 l 191 537 q 172 127 191 332 l 172 126 q 171 106 171 116 q 180 94 171 96 q 189 92 184 93 q 208 87 199 91 q 237 43 237 74 l 237 40 q 207 -1 235 8 q 162 -9 184 -9 q 102 5 132 -9 q 68 64 69 26 l 68 77 q 71 136 68 106 q 87 382 81 258 q 92 566 92 473 q 90 657 92 611 q 87 767 89 712 q 83 858 85 812 l 83 879 q 84 920 83 899 q 178 1022 87 1022 q 200 1021 189 1022 q 253 1008 228 1018 q 275 996 265 1004 z "},"\\":{"ha":536,"x_min":68,"x_max":469,"o":"m 414 219 q 450 108 433 163 q 463 67 456 87 q 467 49 465 57 q 469 43 468 45 q 431 -11 467 -1 q 418 -12 425 -12 q 377 11 393 -12 q 366 38 370 24 q 275 307 326 174 l 247 386 q 112 795 174 589 q 82 909 95 852 l 71 953 q 68 977 68 965 q 99 1018 71 1007 q 113 1020 106 1020 q 147 1002 132 1020 q 161 971 157 987 q 163 964 162 967 l 168 949 l 264 649 q 363 363 311 505 q 414 219 389 291 z "},"]":{"ha":336,"x_min":68,"x_max":268,"o":"m 252 465 q 256 389 254 428 q 267 138 261 268 q 268 113 268 125 q 267 79 268 96 q 209 9 260 26 q 137 -1 174 -1 q 118 0 127 -1 q 87 13 100 1 q 73 41 75 24 q 72 50 72 45 q 106 96 72 83 q 134 101 120 100 q 144 102 139 101 q 163 108 159 103 q 166 121 166 111 q 165 128 166 124 q 161 224 165 176 q 149 597 149 411 q 151 721 149 659 q 152 768 151 745 q 154 825 153 797 q 151 883 153 854 l 151 884 q 147 910 150 902 q 138 921 144 918 q 117 926 131 924 q 113 926 115 926 q 90 935 100 928 q 68 972 68 947 l 68 977 q 79 1001 69 991 q 102 1014 88 1012 q 131 1016 117 1016 q 193 1004 163 1016 q 242 934 222 991 q 255 855 255 895 l 255 848 q 254 793 254 821 q 252 726 252 760 q 252 549 252 642 l 252 465 z "},"^":{"ha":367,"x_min":68,"x_max":299,"o":"m 251 1067 q 296 951 279 1012 q 299 935 298 943 l 299 934 q 266 883 299 897 q 248 880 257 880 q 208 904 225 880 q 198 926 202 914 q 196 930 197 928 q 185 961 191 945 q 180 975 183 968 q 169 964 172 970 q 164 951 165 958 q 160 943 163 947 q 155 932 157 938 q 147 917 152 924 q 123 901 138 905 q 113 899 118 899 q 95 903 104 899 q 74 920 82 909 q 68 939 68 930 q 68 946 68 943 q 69 949 68 947 q 89 1024 77 987 q 123 1093 100 1061 q 177 1123 146 1123 q 233 1096 208 1124 q 251 1067 243 1082 z "},"_":{"ha":439,"x_min":68,"x_max":372,"o":"m 341 116 q 372 69 372 102 l 372 66 q 333 23 368 32 q 310 21 321 21 l 304 21 q 241 23 273 22 l 217 24 l 217 25 l 125 25 q 96 29 111 25 q 68 66 71 39 l 68 71 q 94 110 68 96 q 121 117 106 116 q 271 123 197 123 l 300 123 q 341 116 321 123 z "},"`":{"ha":288,"x_min":68,"x_max":220,"o":"m 210 980 q 219 957 216 969 q 220 947 220 952 q 194 904 220 919 q 170 899 182 899 q 134 916 151 899 q 121 938 126 926 q 92 1006 106 972 q 73 1048 83 1027 q 68 1075 68 1061 l 68 1078 q 94 1116 69 1104 q 112 1119 103 1119 q 138 1110 125 1119 q 159 1080 152 1098 q 210 980 185 1030 z "},"a":{"ha":474,"x_min":0,"x_max":413,"o":"m 220 616 q 248 618 235 618 q 375 541 330 618 q 408 421 404 485 q 413 328 413 374 q 412 278 413 302 q 411 254 412 266 q 401 96 409 174 q 400 90 401 93 q 397 67 399 78 q 351 29 385 33 l 349 29 q 302 56 319 29 q 302 57 302 56 q 300 59 301 58 q 295 73 296 65 q 291 86 294 81 q 280 92 288 92 q 268 89 274 92 q 257 80 262 85 q 248 73 252 77 q 160 37 208 45 q 136 35 148 35 q 34 77 71 35 q 0 168 0 116 q 3 198 0 182 q 56 295 13 256 q 159 337 104 337 q 227 322 192 337 q 288 279 262 307 l 291 277 q 297 271 294 273 q 300 271 298 271 q 305 272 302 271 q 310 277 309 274 l 311 281 l 310 284 l 310 306 q 311 336 311 321 q 300 449 311 393 q 286 492 296 472 q 248 517 273 517 q 237 515 242 517 q 168 487 199 509 q 121 448 143 469 q 114 441 117 444 l 111 437 q 88 420 100 427 q 66 414 77 414 q 54 415 63 414 q 35 428 45 417 q 23 456 23 441 q 28 478 23 467 q 35 489 31 484 q 149 591 83 551 q 220 616 182 610 m 212 173 q 227 191 227 184 l 227 192 q 213 211 227 199 q 200 221 207 216 q 164 235 182 235 q 138 229 151 235 q 102 172 104 210 q 112 145 102 155 q 134 136 121 136 l 138 136 q 174 148 157 139 q 212 173 194 159 z "},"b":{"ha":463,"x_min":0,"x_max":402,"o":"m 107 943 q 109 916 109 929 l 109 861 q 105 596 109 728 q 102 483 104 539 l 102 441 q 107 435 102 435 q 111 436 109 435 q 115 438 113 437 q 126 454 120 446 q 139 472 132 463 q 200 529 164 507 q 260 546 231 546 q 338 513 302 546 q 385 438 371 481 q 402 332 402 385 q 367 186 402 258 q 164 64 304 64 q 139 66 151 64 q 129 67 134 67 q 91 50 109 67 q 57 35 75 35 q 33 41 50 35 q 9 79 17 47 q 1 171 2 125 q 1 295 1 233 l 1 357 q 0 426 1 391 l 0 501 q 3 594 1 548 q 9 836 5 715 q 14 905 12 870 l 17 936 l 18 944 q 34 975 22 963 q 63 986 47 986 q 92 974 80 985 q 107 943 104 962 m 127 215 q 119 181 119 193 q 121 173 119 176 q 153 166 126 166 l 170 166 q 243 189 213 166 q 286 252 273 212 q 299 333 299 292 q 292 391 299 362 q 276 429 288 412 q 258 441 268 441 q 241 434 250 441 q 200 382 217 412 q 127 215 153 303 z "},"c":{"ha":388,"x_min":0,"x_max":327,"o":"m 132 407 q 111 353 117 381 q 100 273 100 313 q 112 187 100 230 q 135 138 119 161 q 150 130 142 130 q 163 135 156 130 q 198 176 186 152 q 214 209 206 193 l 223 229 q 225 235 224 232 q 237 255 230 245 q 277 277 254 277 q 296 273 286 277 q 321 250 313 266 q 327 229 327 239 q 325 215 327 222 q 291 132 311 172 q 235 62 270 93 q 147 24 191 24 q 110 29 139 24 q 44 91 80 34 q 0 251 1 165 l 0 279 q 28 427 0 358 q 78 503 46 470 q 166 547 114 541 l 175 547 q 249 523 215 547 q 294 455 283 499 q 296 439 296 447 q 295 427 296 433 q 265 395 290 402 q 253 393 258 393 q 222 406 235 393 q 211 424 216 414 q 205 435 208 429 q 182 449 195 449 q 161 441 172 449 q 132 407 143 427 z "},"d":{"ha":526,"x_min":0,"x_max":465,"o":"m 417 962 q 460 922 452 956 q 465 878 465 901 l 465 873 q 459 685 463 779 q 455 607 457 646 q 444 338 448 473 q 443 243 443 290 q 447 70 443 156 q 448 53 448 62 q 447 37 448 45 q 403 -7 439 -1 l 400 -7 q 353 24 369 -7 q 346 61 346 42 l 346 65 q 340 238 340 151 q 344 378 340 308 q 345 387 345 382 q 344 396 345 391 l 344 408 q 333 395 336 401 q 329 382 330 389 q 328 378 328 380 q 269 217 304 296 q 210 116 246 163 q 158 68 189 87 q 109 56 132 56 q 36 96 68 56 q 4 181 9 135 q 0 238 0 210 q 27 378 0 310 q 84 465 46 428 q 153 510 116 496 q 195 517 174 517 q 236 511 215 517 q 240 511 238 511 q 248 510 244 510 q 256 512 252 510 q 262 523 260 513 q 271 555 267 538 l 296 670 q 337 848 317 760 q 353 909 345 879 q 364 936 357 924 q 409 963 380 963 q 417 962 413 963 m 227 398 q 228 404 228 401 q 208 419 228 418 l 204 419 q 178 411 191 419 q 142 377 156 398 q 102 243 102 313 q 110 178 102 211 q 117 170 112 170 l 117 170 q 127 176 123 170 q 145 199 137 186 q 192 296 173 245 q 227 398 212 346 z "},"e":{"ha":457,"x_min":0,"x_max":396,"o":"m 12 253 q 12 273 12 263 l 12 276 q 3 323 12 300 q 0 334 0 328 q 2 344 0 338 q 10 358 3 351 q 31 395 24 374 q 33 402 32 398 q 117 515 60 469 q 216 557 161 549 q 235 559 226 559 q 304 539 272 559 q 357 445 357 503 q 352 408 357 427 q 294 328 336 359 q 141 269 227 275 l 136 269 q 125 268 130 269 q 115 257 115 267 q 165 151 117 193 q 206 136 185 136 q 236 142 221 136 q 290 182 266 158 q 295 186 292 184 q 321 208 307 199 q 349 216 336 216 q 382 201 367 216 q 396 168 396 186 q 390 143 396 156 q 389 142 390 142 q 386 136 388 139 q 319 74 355 100 q 235 36 282 47 q 216 34 225 34 q 208 33 212 33 q 78 94 129 37 q 12 253 18 163 m 207 450 q 132 369 154 427 q 140 368 136 369 l 144 368 q 151 369 148 368 q 227 404 192 379 q 250 427 239 414 q 254 437 253 431 q 255 440 255 438 q 253 447 255 444 q 237 456 248 456 l 235 456 q 207 450 220 456 z "},"f":{"ha":376,"x_min":0,"x_max":343,"o":"m 76 381 q 73 437 75 409 q 69 527 69 482 l 69 552 q 83 685 70 619 q 117 770 92 730 q 222 839 154 828 q 237 840 229 840 q 332 793 294 840 q 343 764 343 779 q 334 739 343 752 q 301 721 320 721 q 279 726 290 721 q 267 733 273 729 q 257 739 262 736 q 240 744 248 744 q 219 734 229 744 q 193 697 201 719 q 176 629 180 664 q 172 516 172 572 q 179 374 172 445 q 182 357 180 366 q 193 349 184 349 l 195 349 q 210 349 202 349 q 240 352 225 351 l 244 352 q 264 353 254 353 l 273 353 q 317 313 309 347 q 317 304 317 309 q 288 260 317 275 q 262 253 275 255 q 255 252 259 252 q 235 250 245 250 l 229 250 q 212 249 220 250 q 197 238 203 247 q 193 222 193 231 q 193 215 193 221 q 196 199 193 210 q 199 181 198 190 q 208 -26 208 77 q 207 -103 208 -64 q 206 -105 207 -104 l 206 -110 q 201 -144 206 -127 q 155 -180 189 -178 q 106 -142 119 -179 q 104 -113 104 -127 l 104 28 q 93 213 104 121 q 90 230 92 224 q 82 236 87 235 q 64 238 76 237 l 56 238 q 35 240 45 239 q 0 281 2 249 q 28 324 0 311 q 33 326 31 325 q 36 326 35 326 q 52 328 43 328 q 67 330 60 328 q 77 340 74 332 q 79 353 79 347 q 77 368 79 360 l 76 381 z "},"g":{"ha":489,"x_min":0,"x_max":428,"o":"m 334 -300 q 251 -393 301 -354 q 172 -429 215 -419 q 140 -432 155 -432 q 17 -351 58 -432 q 0 -271 0 -312 q 3 -233 0 -252 q 41 -131 14 -178 q 104 -43 67 -84 q 144 -24 119 -24 q 184 -44 170 -25 q 193 -71 193 -56 q 190 -88 193 -79 q 170 -120 183 -106 q 168 -123 170 -121 q 115 -212 135 -164 q 102 -272 102 -241 l 102 -278 q 110 -310 103 -295 q 142 -330 120 -330 l 144 -330 q 189 -311 170 -328 q 256 -232 231 -279 q 309 -78 295 -159 q 327 134 327 28 q 324 214 327 174 q 322 224 324 219 q 315 235 321 230 q 302 215 308 225 q 275 173 289 193 q 202 100 247 129 q 136 79 172 79 q 106 82 121 79 q 43 127 67 94 q 12 204 18 162 q 7 262 7 233 q 69 450 7 363 q 161 519 104 499 q 210 527 186 527 q 306 481 264 527 q 323 465 315 472 q 345 460 332 460 l 347 460 q 399 422 385 458 q 411 378 407 401 q 423 264 421 322 q 424 245 423 255 q 428 125 428 185 q 425 30 428 93 q 403 -125 422 -33 q 334 -300 383 -218 m 262 371 q 264 379 264 375 q 260 391 264 385 q 245 410 253 401 q 212 427 230 427 q 189 421 201 427 q 141 376 158 405 q 109 261 109 325 l 109 258 q 109 249 109 254 q 123 192 109 220 q 134 183 127 185 l 137 183 q 148 186 142 183 q 181 217 168 198 q 262 371 233 288 z "},"h":{"ha":522,"x_min":0,"x_max":461,"o":"m 302 614 q 340 621 322 621 q 414 581 382 621 q 444 509 437 548 q 459 376 458 443 q 460 336 460 355 q 458 275 460 305 q 458 216 458 246 q 460 100 458 158 l 460 98 l 461 84 l 460 71 q 412 21 454 25 q 378 33 393 21 q 361 66 364 45 q 355 158 356 112 q 355 197 355 178 q 357 296 355 247 q 359 340 359 319 q 345 484 359 412 q 337 507 342 496 q 332 511 336 510 l 331 511 q 326 509 328 511 q 311 496 317 504 q 262 423 282 463 q 186 243 217 336 q 170 195 177 219 q 146 128 158 162 q 127 91 139 108 q 83 66 108 66 q 65 68 81 66 q 34 101 49 70 q 25 149 25 125 l 25 155 q 23 235 24 195 q 17 406 20 321 q 10 562 14 484 q 3 740 6 651 q 1 854 1 797 q 0 895 1 874 l 0 901 q 1 920 0 910 q 15 943 5 933 q 39 954 25 952 l 44 954 q 66 948 55 954 q 83 929 77 942 q 92 890 91 910 l 92 884 q 113 563 109 724 q 118 429 115 496 q 119 395 119 412 l 119 389 q 120 386 119 388 q 123 381 120 383 q 133 387 130 382 q 137 397 136 392 q 140 404 138 401 q 195 511 164 459 q 250 580 218 549 q 302 614 273 602 z "},"i":{"ha":170,"x_min":0,"x_max":109,"o":"m 2 375 q 13 521 7 448 q 18 545 14 534 q 58 571 31 571 l 62 571 q 101 539 92 568 q 104 508 104 524 l 104 502 q 104 353 104 427 q 104 301 104 327 q 102 242 102 272 q 108 113 102 178 q 109 97 109 105 q 106 72 109 84 q 57 34 93 35 q 12 71 23 37 q 5 108 6 89 l 5 116 q 0 276 0 196 q 2 375 0 326 m 60 637 q 29 650 43 637 q 14 681 16 663 l 14 683 q 27 712 14 699 q 58 726 40 726 q 87 714 75 726 q 102 685 100 703 l 102 683 q 91 653 102 666 q 60 637 79 640 z "},"j":{"ha":446,"x_min":0,"x_max":385,"o":"m 385 146 q 374 11 383 83 q 345 -137 366 -62 q 281 -286 323 -216 q 217 -363 256 -330 q 151 -398 188 -388 q 119 -402 134 -402 q 25 -349 62 -402 q 1 -269 3 -312 q 0 -251 0 -260 q 14 -162 0 -205 q 204 66 64 -9 q 258 90 230 81 q 283 124 283 98 q 284 165 284 145 q 269 315 284 241 q 246 374 262 347 q 214 395 233 395 q 189 387 203 395 q 188 386 189 386 l 185 385 q 130 320 151 356 q 104 239 108 285 q 103 228 103 234 q 101 206 103 217 q 63 174 94 176 l 60 174 q 19 199 31 174 q 10 248 10 223 q 12 269 10 258 q 115 459 28 384 q 191 494 148 487 q 216 496 204 496 q 317 448 276 496 q 361 363 349 410 q 385 169 385 279 l 385 146 m 264 -37 q 264 -35 264 -36 l 265 -31 q 265 -27 265 -29 q 260 -22 264 -24 l 258 -22 q 254 -23 257 -22 q 249 -25 252 -24 q 104 -223 131 -91 q 102 -240 102 -232 l 102 -253 q 109 -289 102 -273 q 123 -300 114 -300 q 132 -297 127 -300 q 165 -272 152 -288 q 203 -218 188 -248 q 264 -37 248 -132 m 175 636 q 187 669 175 656 q 217 684 199 683 q 250 670 237 684 q 264 635 263 656 q 251 603 264 615 q 220 590 239 590 q 189 604 201 591 q 175 636 176 616 z "},"k":{"ha":464,"x_min":0,"x_max":403,"o":"m 106 261 q 102 257 103 260 q 102 252 102 254 l 102 81 l 102 59 l 102 37 l 102 31 q 100 8 102 20 q 53 -33 89 -29 l 51 -33 q 20 -21 34 -33 q 2 9 7 -10 q 0 36 0 22 l 0 46 q 1 178 1 112 q 1 376 1 277 q 1 600 1 488 q 0 762 0 681 q 1 858 0 810 q 5 886 1 872 q 20 909 9 901 q 45 918 31 917 q 87 888 74 917 q 93 858 93 873 q 94 848 93 852 q 102 589 102 719 l 102 459 q 103 427 103 444 l 103 406 q 111 412 108 410 q 119 418 117 415 q 203 492 156 460 q 315 572 259 532 q 345 588 329 581 q 362 591 353 591 q 393 576 380 591 q 403 549 403 563 q 397 525 403 537 q 373 500 387 510 q 370 498 372 499 l 319 456 q 250 401 284 429 q 244 396 248 399 q 206 363 224 380 q 191 336 191 348 l 191 331 q 208 311 191 325 q 250 279 228 294 q 258 274 254 277 l 307 240 q 361 202 334 222 q 387 181 375 193 q 402 144 402 163 q 393 116 402 130 q 355 96 376 96 q 326 104 341 96 q 313 111 319 107 l 308 115 q 279 136 294 125 l 212 182 q 204 187 208 185 q 117 257 157 217 q 113 261 115 260 q 110 262 111 262 q 106 261 109 262 z "},"l":{"ha":177,"x_min":0,"x_max":116,"o":"m 106 109 q 102 46 105 77 q 97 18 102 31 q 79 -5 92 3 q 52 -14 66 -14 q 7 14 22 -12 q 0 49 0 31 q 1 59 0 54 q 2 85 1 73 q 7 218 5 152 q 10 379 9 298 l 12 448 l 14 448 l 14 673 q 16 825 14 749 q 17 841 16 833 q 20 869 17 856 q 60 902 31 899 q 87 893 75 902 q 104 869 99 884 q 108 845 108 857 q 111 767 109 806 q 116 640 115 704 q 106 109 114 374 z "},"m":{"ha":738,"x_min":0,"x_max":677,"o":"m 256 551 q 304 568 282 568 q 363 535 336 568 q 385 490 378 515 q 397 431 391 461 l 401 412 q 404 398 402 406 q 406 388 404 394 q 425 418 421 404 q 428 426 427 422 q 429 427 429 427 q 474 510 448 470 q 509 551 489 533 q 569 576 539 576 q 595 573 574 576 q 640 531 615 570 q 661 477 654 506 q 676 370 674 424 q 677 319 677 345 q 674 231 677 275 q 669 85 669 159 l 669 48 q 665 23 669 36 q 618 -11 652 -11 q 571 24 582 -9 q 567 60 567 41 l 567 75 q 573 262 569 168 q 574 316 574 289 q 568 425 574 371 l 568 426 q 566 437 568 432 q 558 447 564 443 q 546 435 551 442 q 539 421 542 429 q 535 414 537 417 q 476 267 500 342 l 469 245 q 437 151 454 198 q 418 110 430 130 q 372 82 402 82 q 361 83 367 82 q 317 127 326 90 q 310 183 310 155 q 311 197 310 190 l 311 219 q 301 393 311 307 q 300 399 300 396 q 299 410 300 405 q 292 420 298 416 q 282 412 286 417 q 278 402 279 408 q 276 397 277 399 l 230 278 q 227 269 229 273 q 212 230 219 249 q 183 155 198 192 q 154 95 171 124 q 129 62 144 77 q 83 42 107 42 q 62 45 79 42 q 27 79 45 48 q 8 151 11 113 q 0 305 0 229 q 5 423 0 364 q 5 437 5 430 q 7 465 5 451 q 50 508 14 505 q 96 467 85 507 q 98 447 97 457 l 98 446 q 98 435 98 441 l 98 404 q 102 283 100 344 q 103 260 102 272 q 104 258 104 259 q 104 256 104 257 q 105 256 104 256 l 106 255 l 107 255 q 111 255 109 255 q 113 257 113 256 q 124 283 119 270 l 125 288 l 143 334 q 184 440 163 387 q 220 508 199 475 q 220 511 220 509 q 256 551 234 534 z "},"n":{"ha":555,"x_min":0,"x_max":494,"o":"m 342 594 q 385 604 365 604 q 456 564 426 604 q 486 477 480 524 q 494 370 494 424 q 491 302 494 336 q 486 254 489 278 q 476 85 478 170 l 476 79 q 471 48 476 63 q 424 14 458 14 l 420 14 q 376 57 384 18 q 374 76 374 66 l 374 82 q 376 106 375 94 q 382 220 378 163 q 385 268 383 243 q 391 382 391 325 l 391 403 q 381 481 391 443 q 375 490 379 488 l 374 490 q 366 486 370 490 q 326 437 342 465 q 277 336 296 389 q 254 277 265 307 q 227 208 241 243 q 175 103 205 153 q 138 58 160 77 q 92 41 115 41 q 72 43 88 41 q 37 74 56 46 q 16 128 22 99 q 0 282 0 204 q 1 515 0 399 l 1 537 q 6 574 1 556 q 49 607 17 607 q 91 572 81 604 q 94 550 93 561 l 94 543 q 100 347 100 445 q 102 256 100 301 q 103 246 103 251 l 103 243 q 105 225 103 235 q 114 203 107 216 q 124 227 119 216 q 142 270 134 250 q 165 327 154 298 q 193 399 178 363 q 252 509 216 457 q 301 566 273 540 q 342 594 319 583 z "},"o":{"ha":392,"x_min":0,"x_max":340,"o":"m 77 510 q 172 553 121 553 q 199 552 172 553 q 269 507 225 552 q 329 385 315 454 q 340 294 340 340 q 313 151 340 220 q 256 65 295 102 q 169 29 213 29 q 82 64 125 29 q 35 128 52 92 q 0 289 0 208 q 33 444 0 366 q 77 510 48 481 m 223 199 q 238 294 238 245 l 238 300 q 213 411 238 358 q 212 412 213 412 q 197 437 206 426 q 173 450 189 448 q 145 437 155 449 q 130 410 136 425 q 102 289 102 349 q 124 179 102 234 q 138 154 130 165 q 169 133 153 133 q 199 152 184 133 q 223 199 215 174 z "},"p":{"ha":457,"x_min":0,"x_max":396,"o":"m 265 536 q 369 452 336 516 q 396 334 396 393 q 374 224 396 294 q 265 106 351 155 q 153 78 212 79 l 140 78 q 128 79 134 79 q 117 68 118 79 q 117 43 117 56 l 117 22 q 102 -454 117 -216 q 98 -487 102 -471 q 47 -524 84 -524 q 16 -510 29 -523 q 1 -478 3 -498 q 0 -458 0 -469 q 1 -445 0 -452 q 5 -328 3 -387 q 14 -106 10 -218 l 15 -64 l 14 -23 l 14 15 l 16 15 q 14 115 15 64 q 6 404 10 259 q 4 446 5 425 q 2 475 3 460 q 1 486 1 481 q 3 504 1 495 q 26 538 7 529 q 45 543 35 543 q 68 537 56 543 l 69 536 q 75 532 73 535 q 90 524 81 525 l 92 524 q 105 528 98 524 q 195 545 149 545 l 203 545 q 265 536 235 545 m 224 200 q 282 271 263 225 q 295 333 295 301 q 292 363 295 348 q 266 423 286 403 q 199 445 246 444 l 183 445 q 121 433 151 445 q 105 424 109 429 q 102 412 102 420 q 103 406 102 409 q 106 379 104 393 q 109 339 108 359 q 111 283 111 311 q 114 222 112 252 l 114 210 q 117 191 115 197 q 127 183 119 184 q 157 180 136 181 l 159 180 q 224 200 193 180 z "},"q":{"ha":463,"x_min":0,"x_max":402,"o":"m 335 537 q 397 480 390 537 q 402 410 402 445 q 401 389 402 399 q 391 -172 391 109 l 391 -238 q 389 -326 391 -281 l 388 -363 q 380 -408 388 -387 q 333 -439 365 -439 l 330 -439 q 286 -397 293 -435 q 285 -383 285 -390 l 285 -376 q 289 -262 289 -319 l 289 -218 q 290 -112 289 -165 q 290 87 290 -12 q 293 159 291 123 q 294 208 294 184 q 295 255 295 231 q 294 278 294 266 q 282 271 286 275 q 276 262 278 267 l 272 255 q 256 235 264 245 q 229 199 243 216 q 174 155 206 172 q 122 142 146 142 q 43 183 78 142 q 5 275 12 224 q 0 342 0 309 q 28 488 0 416 q 68 557 43 526 q 107 593 85 578 q 181 618 144 618 q 256 593 218 618 q 301 550 282 575 q 326 537 310 537 l 335 537 m 244 422 q 248 439 248 430 q 246 450 248 444 q 216 499 240 480 q 183 515 197 515 q 175 515 182 515 q 149 495 167 515 q 121 449 131 475 q 100 343 101 398 l 102 326 q 106 286 103 305 q 108 281 107 283 q 112 262 109 271 q 125 250 115 253 q 130 249 127 249 q 140 253 135 249 q 151 264 145 257 q 157 271 154 268 q 165 280 161 275 l 165 281 q 244 422 213 347 z "},"r":{"ha":580,"x_min":0,"x_max":519,"o":"m 508 500 l 512 494 q 519 465 519 478 q 499 427 519 443 q 471 417 485 417 q 435 433 452 417 q 416 455 424 443 q 400 479 408 467 q 385 504 393 492 q 355 545 370 525 q 342 553 349 553 q 331 545 336 553 q 309 505 318 525 q 268 399 287 452 q 257 370 262 385 q 201 224 232 296 q 153 127 180 173 q 123 86 140 104 q 69 60 97 60 q 42 65 62 60 q 7 115 22 70 q 0 168 0 140 l 0 172 q 1 214 1 193 q 6 335 3 275 q 18 523 11 429 q 23 555 18 539 q 65 585 35 584 q 92 574 80 584 q 106 550 103 565 q 109 522 109 536 l 109 517 q 109 420 109 469 l 107 312 q 106 304 107 309 l 106 300 q 106 293 106 297 q 111 284 106 289 q 119 291 117 286 q 123 300 122 295 q 125 303 124 302 q 176 445 151 374 q 225 564 196 506 q 267 627 241 598 q 340 662 302 662 q 405 637 372 662 q 460 574 437 610 q 495 521 477 547 q 508 500 501 511 z "},"s":{"ha":334,"x_min":0,"x_max":273,"o":"m 120 109 q 161 130 144 113 q 171 151 171 140 q 167 168 171 159 q 134 206 154 190 l 132 209 q 64 278 96 241 q 8 384 24 324 q 3 425 3 405 q 61 541 3 492 q 134 569 96 569 q 189 554 161 569 q 255 441 255 517 l 255 437 q 218 393 251 399 q 210 392 214 392 q 167 426 180 392 q 164 437 165 432 q 161 450 163 444 q 142 467 155 466 l 139 467 q 119 456 129 467 q 105 422 105 440 q 108 406 105 414 q 130 361 115 381 q 178 304 151 330 l 195 289 q 227 257 211 273 q 264 198 252 232 q 273 149 273 172 q 234 59 273 100 q 106 7 182 7 l 105 7 q 9 80 28 7 q 0 136 2 108 l 0 141 q 4 162 0 152 q 47 196 15 193 l 50 196 q 96 163 83 196 q 102 134 100 149 q 104 119 103 126 q 116 109 107 109 q 120 109 118 109 z "},"t":{"ha":203,"x_min":-220,"x_max":368,"o":"m 7 781 l 7 785 q 3 800 7 796 q -13 804 -1 804 l -18 804 q -72 802 -45 803 l -122 800 q -130 800 -126 800 l -142 800 q -180 801 -161 800 q -220 842 -218 807 q -183 887 -220 878 q -138 894 -161 892 q -122 895 -130 895 q -21 905 -72 901 q 0 909 -9 905 q 13 928 9 914 q 46 956 20 951 q 56 956 51 956 q 92 933 81 956 q 108 915 98 918 q 127 912 117 912 l 131 912 l 286 915 l 292 915 q 328 912 310 915 q 355 897 344 909 q 368 869 366 885 l 368 866 q 332 819 368 833 q 298 813 315 813 l 261 813 q 144 811 203 812 l 139 811 q 111 806 117 811 q 107 782 107 800 l 107 770 q 108 646 108 708 q 104 318 108 482 l 101 170 l 100 83 l 100 76 q 98 46 100 61 q 50 2 87 5 l 47 2 q 16 15 29 2 q -1 48 3 27 q -3 77 -3 63 q 2 350 0 214 l 3 425 l 5 425 l 5 713 q 6 753 5 733 q 7 781 7 766 z "},"u":{"ha":425,"x_min":0,"x_max":363,"o":"m 28 151 q 0 298 3 222 l 0 319 q 18 484 0 403 q 25 504 20 495 q 63 528 39 528 q 71 527 66 528 q 106 495 98 522 q 108 477 108 486 q 106 461 108 469 l 106 458 q 100 351 100 404 q 102 286 100 319 q 123 184 106 234 q 149 142 131 160 q 169 132 159 132 q 186 139 178 132 q 218 182 207 157 q 252 290 243 233 q 262 411 262 350 l 262 431 q 261 448 262 440 q 260 490 260 469 l 260 491 q 259 503 259 496 q 260 519 259 511 q 301 561 267 555 q 309 562 305 562 q 354 530 339 562 q 360 505 359 517 q 363 418 363 461 q 360 329 363 384 q 334 199 357 274 q 295 111 321 152 q 241 53 274 77 q 168 29 204 29 q 87 60 127 29 q 28 151 45 98 z "},"v":{"ha":424,"x_min":-12,"x_max":370,"o":"m 338 576 q 370 530 368 564 q 366 502 370 515 q 322 343 341 423 q 292 227 309 285 q 250 104 275 164 q 216 47 237 73 q 155 16 187 16 q 136 17 153 16 q 92 53 118 18 q 58 125 69 87 q 12 316 30 220 q -5 424 3 372 q -11 466 -8 446 q -12 479 -11 473 q -11 494 -12 488 q 26 534 -5 527 l 31 534 q 54 528 42 534 q 71 509 65 522 q 81 475 78 492 q 83 469 82 471 l 109 353 q 141 208 125 280 q 152 172 145 189 q 153 168 153 170 q 155 165 153 166 q 159 163 157 163 q 162 164 161 163 q 165 167 164 165 q 170 178 168 173 q 183 218 178 198 q 216 342 200 280 q 241 437 229 389 q 268 529 254 483 q 282 559 273 545 q 321 578 298 578 q 338 576 329 578 z "},"w":{"ha":736,"x_min":0,"x_max":676,"o":"m 261 119 q 212 75 241 92 q 155 58 182 58 q 81 96 115 58 q 45 162 57 126 q 12 300 22 230 q 0 460 0 380 q 3 538 0 499 q 5 559 3 549 q 45 591 15 588 l 47 591 q 87 564 75 591 q 94 526 94 545 l 94 519 q 112 319 98 418 q 138 205 119 260 l 139 201 q 159 165 144 180 q 180 179 172 170 q 194 199 188 189 q 197 203 195 201 q 246 309 229 253 q 271 388 259 349 q 278 409 275 398 q 296 451 284 431 q 343 477 317 477 q 359 476 345 477 q 393 446 374 475 q 407 402 404 425 q 412 376 409 389 q 439 242 425 309 q 475 127 451 182 q 504 81 484 101 q 511 79 507 79 q 519 82 515 79 q 538 113 532 96 q 562 198 556 155 q 574 365 574 281 q 560 540 574 452 q 559 544 560 542 q 557 573 557 558 q 569 603 558 591 q 597 620 581 616 q 605 621 601 621 q 629 614 616 621 q 650 593 642 608 q 659 565 656 579 q 674 441 672 503 q 676 368 676 405 q 673 278 676 332 q 656 153 671 224 q 623 54 646 102 q 580 -1 607 22 q 512 -27 546 -27 q 448 -5 480 -27 q 391 66 412 24 q 347 188 363 124 q 339 218 343 202 q 335 234 337 226 q 322 223 326 229 q 317 212 319 218 q 313 205 315 208 q 261 119 292 159 z "},"x":{"ha":541,"x_min":-20,"x_max":480,"o":"m 32 82 q 136 250 84 166 q 163 296 150 273 q 178 319 171 308 q 186 331 182 326 q 156 367 172 351 q 146 376 151 371 l 87 438 l 8 521 q -13 547 -4 533 q -20 570 -20 559 q -6 600 -20 586 q 23 613 7 613 q 47 606 35 613 q 74 585 62 597 q 105 556 90 570 q 219 447 164 504 q 228 437 223 442 q 243 427 239 427 q 256 439 248 427 q 272 460 264 450 l 323 530 q 360 576 341 553 q 377 593 368 585 q 406 604 392 604 q 431 596 419 604 q 450 562 450 582 q 446 544 450 553 q 432 519 440 531 l 429 515 l 368 424 q 336 376 353 400 q 336 374 336 375 q 323 355 329 365 q 320 347 320 351 q 325 336 320 340 l 359 299 q 368 290 363 294 l 392 264 l 450 201 q 473 172 464 188 q 480 145 480 158 q 464 111 480 126 q 432 98 448 98 q 402 107 418 98 q 381 127 391 116 q 376 134 378 130 q 293 221 334 176 q 262 253 278 237 q 241 229 247 241 q 238 224 240 226 q 179 127 209 176 l 122 35 q 119 29 120 32 q 98 1 110 14 q 62 -16 81 -16 q 37 -9 50 -16 q 13 33 13 7 q 16 52 13 41 q 32 82 23 68 z "},"y":{"ha":557,"x_min":0,"x_max":496,"o":"m 491 45 q 448 -189 485 -75 q 360 -354 420 -279 q 267 -429 321 -402 q 191 -448 230 -448 q 149 -443 170 -448 q 54 -317 54 -413 l 54 -313 q 102 -167 62 -234 q 130 -144 113 -149 q 144 -141 137 -141 q 163 -145 154 -141 q 193 -191 193 -159 q 191 -208 193 -199 q 181 -233 187 -221 l 176 -247 q 172 -255 174 -251 q 156 -311 160 -281 q 155 -317 155 -314 q 186 -345 155 -345 q 234 -332 212 -345 q 283 -287 262 -314 q 349 -166 326 -233 q 389 47 385 -62 q 393 194 393 120 l 393 250 l 393 255 q 392 260 393 257 q 387 266 391 263 q 372 241 376 255 q 368 231 370 235 q 292 101 338 161 q 212 34 260 58 q 159 20 185 20 q 97 39 127 20 q 50 92 67 60 q 22 166 31 127 q 0 349 1 256 l 0 374 q 14 570 0 472 l 14 572 q 16 586 14 579 q 61 621 28 621 l 62 621 q 103 584 94 616 q 104 562 104 573 l 104 551 q 103 496 104 524 q 102 418 102 456 l 102 376 q 115 216 102 296 q 139 141 121 177 q 161 124 149 124 q 180 132 170 124 q 220 175 203 151 q 282 288 258 228 q 349 486 321 385 q 364 534 356 511 q 378 559 370 548 q 421 582 397 582 q 438 581 423 582 q 469 553 452 580 q 484 496 482 526 q 492 351 491 424 q 493 313 492 332 q 496 198 496 256 q 491 45 496 122 z "},"z":{"ha":427,"x_min":-16,"x_max":378,"o":"m 129 596 q 157 599 144 598 q 166 600 162 599 q 260 580 218 600 q 331 467 331 543 q 330 454 331 460 q 305 370 325 410 q 233 258 275 310 q 194 210 214 233 l 155 159 q 112 87 127 127 q 111 83 111 85 q 114 75 111 79 q 124 71 117 71 q 190 83 158 71 q 263 117 228 96 q 269 119 266 118 q 280 125 275 123 q 306 139 293 133 q 330 144 319 144 q 372 119 355 144 q 378 95 378 106 q 355 52 378 73 q 351 50 353 52 q 261 2 307 23 q 163 -28 215 -20 q 130 -31 146 -31 q 77 -23 103 -31 q 7 74 7 1 q 28 150 9 115 q 83 234 52 195 l 112 269 q 164 335 138 302 q 217 420 195 374 q 229 463 229 447 q 222 484 229 472 q 170 498 215 495 q 155 498 163 498 q 81 481 116 498 q 77 479 79 480 q 47 465 62 471 q 27 462 36 462 q -10 486 3 462 q -16 506 -16 496 q 4 541 -16 525 q 129 596 60 585 z "},"{":{"ha":511,"x_min":68,"x_max":443,"o":"m 403 100 q 443 51 443 87 l 443 45 q 394 1 436 7 l 385 1 q 316 20 351 1 q 262 74 281 39 q 241 137 248 104 q 227 211 234 174 q 205 265 220 240 q 132 323 180 309 q 129 324 130 323 q 108 331 118 327 q 68 386 68 350 q 73 413 68 398 q 87 444 78 429 q 154 578 130 507 q 192 723 179 648 q 225 887 208 805 q 252 961 234 926 q 288 1007 265 988 q 350 1028 315 1028 q 372 1027 352 1028 q 418 1001 391 1026 q 433 968 433 986 q 430 951 433 960 q 387 925 417 925 l 382 925 q 380 926 381 926 q 378 926 379 926 q 357 928 365 928 q 351 928 355 928 q 342 921 346 928 q 334 898 338 914 q 307 781 317 840 q 300 747 303 764 q 271 612 287 679 q 200 434 248 518 q 193 421 197 428 l 190 414 q 195 410 193 412 q 199 406 197 408 q 327 229 302 345 l 335 188 q 341 159 338 174 q 348 132 344 145 q 349 130 349 131 q 374 106 354 111 q 403 100 389 104 z "},"|":{"ha":273,"x_min":68,"x_max":205,"o":"m 199 353 q 201 291 201 321 q 205 146 204 216 l 205 125 q 205 82 205 103 l 205 71 q 202 41 205 56 q 149 -5 190 -5 l 147 -5 q 102 50 103 1 q 104 142 104 96 q 102 247 104 195 q 97 340 99 294 q 77 714 88 527 q 68 948 69 831 l 68 955 q 70 981 68 968 q 109 1014 78 1010 l 110 1014 q 152 987 140 1014 q 159 947 158 968 l 163 902 q 178 726 172 814 q 194 460 186 591 q 199 353 197 406 z "},"}":{"ha":397,"x_min":68,"x_max":330,"o":"m 254 583 q 309 441 258 504 q 330 389 330 416 q 320 352 330 372 q 287 200 287 279 l 287 171 q 281 98 287 134 q 182 1 267 12 q 159 -1 172 -1 q 145 -3 153 -2 l 139 -3 q 120 -1 130 -3 q 93 14 104 2 q 80 41 82 25 l 80 47 q 106 90 80 74 q 145 100 125 99 q 154 100 150 100 q 176 107 170 102 q 182 128 181 112 q 184 170 184 149 l 184 170 q 191 272 184 222 q 218 371 197 323 q 220 381 220 376 q 216 394 220 388 q 164 508 178 448 q 148 631 151 568 q 146 669 146 650 q 138 765 145 717 q 118 871 129 819 q 110 897 116 886 q 89 914 104 909 q 83 918 86 916 q 83 919 83 918 q 68 952 68 934 q 71 968 68 960 q 113 996 82 996 q 187 954 160 993 q 210 901 203 929 q 245 708 240 807 q 247 694 246 701 q 254 583 250 638 z "},"~":{"ha":726,"x_min":68,"x_max":659,"o":"m 636 565 q 656 540 650 556 q 659 524 659 532 q 656 507 659 515 q 651 495 654 500 q 581 387 622 437 q 563 369 572 377 q 487 338 528 338 q 438 349 463 338 q 364 398 397 368 l 362 400 l 355 406 q 303 446 330 427 q 254 461 279 461 q 220 455 243 461 q 175 422 197 450 q 164 405 169 414 l 160 398 q 155 391 157 394 q 146 376 152 383 q 113 359 132 359 q 94 363 104 359 q 73 384 79 370 q 68 401 68 392 q 70 414 68 408 q 144 526 91 488 q 254 562 196 562 l 260 562 q 369 525 318 562 q 408 494 389 511 q 431 475 419 484 q 471 446 450 459 q 484 441 477 441 q 501 450 493 441 q 524 480 514 465 q 544 511 534 495 q 555 530 549 520 q 558 534 557 532 q 572 554 564 545 q 610 572 590 572 q 636 565 623 572 z "},"":{"ha":547,"x_min":68,"x_max":479,"o":"m 351 582 q 335 577 339 581 q 330 562 330 574 l 330 478 q 326 441 330 460 q 277 404 313 404 q 232 441 243 406 q 227 481 227 460 l 227 524 q 226 557 227 540 q 222 575 226 571 q 205 580 218 580 l 151 580 q 147 581 149 581 q 121 582 134 581 q 78 628 78 591 l 78 629 q 122 671 81 665 q 175 675 149 674 q 197 677 186 676 l 205 677 q 218 679 212 678 q 231 692 230 680 q 231 712 231 702 l 233 742 q 233 747 233 744 q 237 775 233 761 q 279 805 248 805 l 282 805 q 321 773 311 802 q 325 736 325 755 l 325 732 q 328 698 326 708 q 338 686 330 688 q 352 684 343 684 q 366 685 358 684 q 378 686 371 685 q 389 686 383 686 q 427 680 408 686 q 459 639 458 667 q 421 587 458 597 q 387 583 404 583 q 376 583 381 583 q 363 582 370 582 l 351 582 m 436 324 q 479 279 475 315 q 439 227 479 240 q 401 222 420 223 q 393 221 397 221 q 329 214 361 217 l 227 201 q 156 191 192 197 q 132 188 144 190 q 119 186 125 186 q 96 191 107 186 q 68 229 70 201 l 68 231 q 88 267 68 254 q 111 277 99 274 q 412 326 259 313 l 425 326 q 430 325 427 326 q 436 324 433 325 z "},"":{"ha":404,"x_min":-216,"x_max":525,"o":"m 525 867 q 515 836 525 849 q 488 817 505 822 q 459 814 473 814 l 450 814 q 407 812 429 813 q 325 809 366 811 q 306 804 309 808 q 302 787 302 800 l 302 783 q 302 735 302 759 l 302 427 q 304 184 302 306 l 304 174 q 312 51 304 113 q 313 30 313 41 q 313 14 313 22 q 297 -18 310 -6 q 264 -31 283 -30 l 262 -31 q 234 -21 247 -31 q 216 7 220 -11 q 207 77 208 42 l 207 85 q 200 287 201 186 l 200 747 q 199 785 200 766 q 186 798 198 798 l 183 798 q 166 798 174 798 q 116 795 141 797 q 103 791 106 795 q 100 776 100 787 l 100 399 l 102 399 l 100 321 q 96 36 98 178 l 96 31 q 90 -1 96 14 q 43 -33 76 -33 l 41 -33 q -3 6 6 -28 q -6 37 -6 22 l -6 43 q -4 133 -5 88 q -3 278 -3 205 l -2 486 l -3 694 l -3 760 q -7 783 -3 779 q -24 787 -12 787 q -40 786 -31 787 q -62 785 -51 785 q -149 781 -105 783 q -160 780 -154 780 q -182 782 -171 780 q -216 820 -212 789 l -216 825 q -191 864 -216 851 q -156 873 -174 871 l -155 873 q -18 888 -86 880 q -4 892 -7 889 q 0 907 -1 896 l 1 920 q 4 944 2 932 q 19 969 7 960 q 45 979 30 979 l 47 979 q 72 970 60 979 q 88 947 83 962 q 91 935 90 941 q 95 907 92 916 q 104 898 97 899 q 113 897 107 897 q 125 898 118 897 q 138 899 130 898 l 142 899 q 163 900 153 899 q 175 901 170 901 q 202 908 196 902 q 207 936 207 914 l 207 941 q 213 966 208 954 q 253 991 224 991 q 292 965 281 991 q 298 945 296 956 q 302 921 300 928 q 313 913 305 914 q 328 913 318 913 l 338 913 q 455 916 397 915 l 461 916 q 484 913 473 916 q 525 867 522 903 z "},"":{"ha":1093,"x_min":0,"x_max":1048,"o":"m 1025 56 q 1048 15 1048 41 q 1047 2 1048 9 q 1003 -36 1038 -31 l 999 -36 q 986 -35 993 -36 q 929 -30 958 -30 q 886 -33 908 -30 q 505 -82 694 -48 q 502 -83 503 -83 q 497 -83 499 -83 q 480 -91 484 -86 q 474 -109 475 -96 q 471 -140 473 -124 q 468 -171 469 -155 q 426 -349 458 -262 q 381 -434 410 -395 q 202 -537 314 -524 q 178 -539 190 -539 q 127 -531 153 -539 q 24 -406 38 -500 q 21 -369 21 -388 q 38 -279 21 -323 q 205 -76 87 -149 q 342 -16 269 -37 q 366 -7 359 -11 q 375 2 373 -4 q 376 22 376 8 l 376 30 l 378 278 l 378 281 q 377 300 378 291 q 376 310 376 305 q 372 311 374 311 q 370 313 370 312 q 362 302 366 307 q 347 279 354 291 q 262 170 309 220 q 214 130 240 147 q 136 106 174 106 q 86 116 120 106 q 23 187 52 126 q 1 280 3 231 q 0 307 0 294 q 41 474 0 395 q 104 551 64 519 q 210 588 153 588 q 262 581 235 588 q 357 529 315 565 q 372 522 363 522 q 383 526 377 522 q 415 536 397 536 q 423 535 419 536 q 469 496 456 528 q 478 446 478 473 l 478 443 q 481 252 481 348 q 480 134 481 193 q 479 66 479 100 l 479 33 q 491 19 479 19 q 495 20 493 19 q 566 31 531 26 q 603 37 585 35 q 922 73 762 62 l 935 73 q 994 68 964 73 q 1025 56 1010 64 m 311 418 q 315 433 315 427 q 315 437 315 433 q 305 448 314 440 q 243 480 278 471 q 212 486 227 486 q 147 450 174 486 q 117 395 128 425 q 102 309 104 353 q 116 231 102 269 q 140 210 125 210 q 159 217 148 210 q 205 259 185 234 q 311 418 266 334 m 309 -358 q 352 -243 339 -303 q 369 -115 366 -182 q 174 -239 248 -148 q 129 -332 142 -281 q 123 -370 123 -351 q 125 -389 123 -380 q 175 -435 131 -434 l 176 -435 q 309 -358 266 -435 m 827 400 q 836 396 831 399 q 846 391 840 393 q 856 389 850 389 l 859 389 q 860 408 860 399 q 840 498 860 455 q 817 513 833 513 q 809 513 814 513 q 781 505 795 510 q 674 441 722 483 q 671 438 672 440 q 648 421 660 429 q 625 416 636 416 q 594 430 608 416 q 583 454 585 440 l 583 458 q 589 480 583 469 q 604 500 595 491 q 734 595 660 560 q 807 615 769 612 q 820 616 814 616 q 926 553 889 616 q 961 426 958 494 q 964 346 964 386 q 958 230 964 288 q 953 184 956 207 l 953 183 q 947 155 951 169 q 908 119 935 123 q 899 118 903 118 q 859 138 878 118 q 854 145 856 141 q 850 152 852 149 q 841 158 847 156 q 831 152 836 155 q 808 137 820 144 q 744 106 778 117 q 702 100 722 100 q 641 118 673 100 q 597 194 610 137 q 595 220 595 207 q 605 282 595 245 q 647 355 614 318 q 732 407 679 392 q 769 412 751 412 q 827 400 798 412 m 802 257 q 803 258 802 258 q 817 274 816 267 l 817 275 q 803 296 817 283 q 768 310 786 310 q 731 295 750 310 q 697 224 699 265 q 711 203 697 203 q 721 205 715 203 q 802 257 765 226 z "},"":{"ha":1093,"x_min":0,"x_max":1048,"o":"m 1029 55 q 1048 18 1048 39 q 1046 3 1048 10 q 1004 -33 1037 -28 q 996 -33 1000 -33 q 987 -33 991 -33 q 928 -28 958 -28 q 879 -31 904 -28 q 871 -32 875 -31 q 506 -80 687 -46 q 497 -81 502 -81 q 490 -83 493 -82 q 475 -100 475 -86 q 472 -124 473 -112 q 468 -163 470 -144 q 426 -346 459 -257 q 385 -427 411 -389 q 175 -535 307 -535 l 174 -535 q 74 -498 114 -534 q 24 -404 34 -463 q 22 -368 22 -385 q 37 -280 22 -323 q 205 -74 85 -147 q 339 -15 269 -36 q 355 -10 349 -12 q 370 -5 366 -7 q 375 4 374 -2 q 376 26 376 11 l 376 32 l 378 244 q 378 271 378 258 l 378 317 q 363 306 368 312 q 355 295 358 300 q 351 289 353 292 q 326 253 338 271 q 288 201 307 227 q 231 145 263 169 q 176 115 206 125 q 136 109 155 109 q 45 154 83 109 q 9 229 18 188 q 0 311 0 271 q 47 484 0 401 q 103 551 68 524 q 211 590 153 590 q 264 582 237 590 q 355 532 315 566 q 369 524 362 526 l 371 524 q 385 528 377 524 q 420 535 404 535 q 473 484 459 535 q 479 420 479 452 l 479 413 l 479 235 l 479 58 l 479 43 q 482 24 479 27 q 491 22 485 22 q 511 24 498 22 q 517 26 514 25 q 907 73 711 59 q 935 75 921 75 q 995 69 965 75 q 1029 55 1014 66 m 302 404 q 315 435 315 425 q 313 443 315 437 q 288 463 312 449 q 267 475 278 469 q 214 488 238 488 q 133 431 165 488 q 102 307 102 373 l 102 304 q 117 230 102 265 q 139 211 125 211 q 157 218 147 211 q 212 269 189 238 q 302 404 262 332 m 323 -328 q 368 -134 362 -235 q 368 -123 368 -129 q 367 -119 367 -121 l 363 -117 q 359 -117 361 -117 l 357 -117 q 194 -213 263 -143 q 130 -324 149 -260 q 123 -366 123 -345 q 125 -386 123 -376 q 178 -434 130 -433 q 291 -382 246 -434 q 323 -328 312 -358 m 866 371 q 716 311 799 322 q 671 305 694 308 q 650 302 661 304 q 744 213 669 213 q 769 215 755 213 q 871 269 828 227 q 880 277 876 273 q 901 298 890 288 q 935 311 918 311 q 969 295 953 311 q 983 262 983 279 q 972 230 983 247 q 907 166 945 193 q 772 113 846 123 q 743 111 758 111 q 643 138 692 111 q 565 228 593 166 q 542 336 542 281 q 546 383 542 359 q 661 586 566 507 q 806 638 724 638 l 808 638 q 879 616 846 637 q 941 508 941 574 q 936 468 941 489 q 866 371 916 409 m 661 416 q 659 411 659 414 q 662 406 659 408 q 677 403 665 403 q 742 420 708 408 q 808 454 777 431 q 836 490 826 469 q 839 507 839 500 q 814 534 839 527 q 797 536 806 536 q 781 534 789 536 q 728 509 751 527 q 661 416 681 473 z "},"":{"ha":1093,"x_min":0,"x_max":1048,"o":"m 459 -244 q 404 -415 446 -334 q 208 -555 342 -535 q 179 -557 193 -557 q 79 -524 126 -557 q 22 -410 31 -491 q 22 -390 22 -399 q 45 -279 22 -333 q 211 -92 98 -158 q 338 -37 271 -56 q 365 -28 351 -33 q 375 -16 374 -24 q 376 1 376 -7 l 378 269 q 376 286 378 277 q 376 293 376 290 q 374 294 375 293 q 369 294 371 294 l 358 278 q 334 243 346 260 q 256 145 300 190 q 167 92 218 107 q 134 87 150 87 q 52 124 88 87 q 18 181 28 149 q 0 294 0 239 q 71 498 0 402 q 178 566 111 551 q 212 569 195 569 q 277 557 245 569 q 355 511 320 541 q 370 504 363 505 l 372 504 q 385 507 378 504 q 418 514 404 514 q 474 458 462 514 q 479 402 479 430 l 479 44 q 478 34 479 39 l 478 19 q 483 4 479 7 q 492 1 486 1 q 500 2 496 1 q 562 12 531 6 q 858 49 709 36 l 873 50 q 934 53 903 53 q 969 52 951 53 q 1018 41 994 51 q 1048 -4 1048 25 q 1046 -18 1048 -10 q 1027 -47 1042 -36 q 1002 -55 1015 -55 q 993 -54 998 -55 q 932 -48 962 -48 q 902 -49 924 -48 q 841 -55 879 -50 q 797 -60 819 -58 q 519 -98 657 -72 q 507 -101 513 -100 q 491 -104 499 -102 q 474 -124 475 -107 l 471 -144 q 459 -244 467 -195 m 313 402 q 315 412 315 408 q 309 425 315 420 q 233 465 277 456 q 213 467 222 467 q 151 435 176 467 q 128 401 138 420 q 103 292 103 349 l 103 263 q 104 261 103 262 q 119 203 105 231 q 138 191 127 191 q 151 194 144 191 q 191 224 174 205 q 313 402 262 306 m 368 -159 l 368 -157 l 369 -153 q 368 -146 369 -150 q 363 -136 368 -142 q 220 -209 284 -156 q 138 -321 165 -254 q 123 -391 123 -355 l 123 -399 q 179 -456 127 -456 q 190 -455 184 -456 q 299 -393 258 -448 q 327 -341 316 -368 q 368 -159 361 -253 m 652 204 q 627 347 628 274 l 627 363 q 635 475 627 420 q 638 502 637 489 q 644 539 640 520 q 650 563 646 551 q 689 589 663 589 q 698 589 693 589 q 734 553 727 583 q 735 533 735 543 q 734 519 735 526 q 730 461 732 488 q 729 443 730 452 q 728 403 728 422 q 734 290 728 343 q 748 237 738 262 q 807 196 770 196 q 842 203 823 196 q 901 271 884 226 q 927 393 924 330 q 928 431 928 412 q 922 505 928 468 q 920 534 920 520 q 962 585 923 576 q 970 585 966 585 q 996 577 983 585 q 1017 550 1009 568 q 1021 532 1019 541 q 1021 530 1021 531 q 1030 428 1030 479 q 1009 273 1030 350 q 931 142 991 195 q 810 94 878 94 q 789 95 800 94 q 652 204 689 110 z "},"":{"ha":1094,"x_min":0,"x_max":1049,"o":"m 1023 44 q 1044 20 1038 35 q 1049 1 1049 11 q 1048 -9 1049 -4 q 999 -48 1037 -45 q 975 -45 987 -48 q 937 -41 956 -41 q 920 -42 928 -41 q 513 -93 715 -57 q 500 -96 506 -94 q 482 -99 488 -97 q 475 -108 477 -102 q 473 -127 474 -114 q 472 -140 473 -133 q 432 -345 465 -245 q 391 -431 416 -391 q 182 -550 317 -546 l 177 -550 q 73 -513 115 -550 q 22 -410 31 -475 q 21 -385 21 -397 q 36 -299 21 -341 q 198 -93 81 -168 q 331 -33 260 -54 q 342 -29 336 -31 q 355 -24 349 -27 q 372 -17 368 -21 q 376 1 376 -12 l 378 244 q 379 290 378 267 q 378 298 379 294 q 377 299 378 298 q 375 300 376 300 l 374 300 q 370 300 372 300 q 368 300 368 300 q 352 276 359 288 l 349 272 q 275 171 315 218 q 204 113 244 136 q 136 94 168 94 q 87 103 119 94 q 27 166 56 113 q 0 283 0 222 l 0 292 q 32 442 0 370 q 86 522 52 487 q 209 575 142 575 q 275 564 241 575 q 357 515 321 547 q 372 509 364 509 q 384 513 378 509 q 416 522 400 522 q 449 511 429 522 q 474 463 469 500 q 479 395 479 429 q 480 273 480 334 l 480 224 l 479 224 l 479 40 q 481 15 479 27 q 483 10 481 12 q 490 7 486 7 l 499 9 q 527 12 513 10 q 900 58 712 44 q 935 60 918 60 q 996 54 965 60 q 998 53 997 54 q 1023 44 1011 50 m 302 389 q 315 420 315 409 q 313 428 315 422 q 288 448 311 434 q 270 458 279 454 q 211 473 237 473 q 176 464 197 473 q 131 413 154 456 q 103 302 103 359 l 103 284 q 117 215 103 248 q 138 197 125 197 q 157 203 146 197 q 209 250 187 222 q 302 389 261 315 m 369 -146 l 369 -144 q 359 -132 369 -132 q 350 -133 355 -132 q 262 -172 304 -148 q 143 -302 183 -220 q 123 -375 125 -340 l 123 -383 q 181 -450 124 -450 q 197 -448 189 -450 q 282 -406 246 -441 q 325 -340 310 -378 q 369 -146 363 -246 m 718 145 q 714 187 714 165 l 714 322 q 717 375 715 350 q 724 509 720 446 q 727 534 724 522 q 767 564 736 562 l 768 564 q 809 536 798 564 q 815 503 815 520 l 815 500 q 816 448 815 474 q 817 353 817 401 q 817 240 817 296 l 817 176 q 810 140 817 157 q 764 111 795 111 l 760 111 q 734 121 745 112 q 718 145 722 130 m 722 700 q 741 734 725 720 q 774 746 756 746 l 778 746 q 806 730 795 743 q 817 701 817 718 l 817 699 q 798 665 814 679 q 764 651 783 651 l 762 651 q 732 667 743 652 q 722 694 722 678 l 722 700 z "},"":{"ha":1093,"x_min":0,"x_max":1048,"o":"m 370 -468 q 174 -559 293 -559 l 172 -559 q 27 -443 59 -552 q 21 -389 21 -416 q 33 -315 21 -351 q 191 -106 75 -182 q 339 -39 260 -61 q 366 -29 357 -33 q 375 -15 374 -24 q 377 14 377 -6 l 377 60 l 378 260 q 379 268 378 264 q 380 275 380 271 q 376 292 380 284 q 372 293 374 293 q 367 291 369 293 q 362 284 364 288 q 361 281 361 283 q 288 179 328 228 q 232 123 263 148 q 181 94 209 104 q 134 85 157 85 q 38 140 77 85 q 5 225 12 178 q 0 288 0 257 q 43 456 0 375 q 101 527 64 497 q 210 567 151 567 q 266 558 237 567 q 353 510 315 543 q 368 501 361 503 q 372 500 370 500 q 387 506 378 500 q 415 514 400 514 q 444 506 426 514 q 472 463 463 498 q 479 394 479 429 l 479 41 q 479 32 479 37 l 479 24 q 479 13 479 20 q 484 -2 479 7 q 499 0 492 -1 q 532 5 515 2 q 835 44 683 31 q 935 52 885 48 l 944 52 q 1002 44 973 52 q 1021 37 1012 41 q 1048 -7 1048 20 q 1047 -19 1048 -13 q 997 -56 1036 -54 l 989 -56 q 933 -50 961 -50 q 911 -50 929 -50 q 861 -55 892 -51 q 823 -59 842 -58 q 524 -99 673 -73 q 521 -100 522 -100 q 516 -100 518 -100 q 498 -104 506 -103 q 481 -109 487 -106 q 474 -118 476 -112 q 472 -139 473 -125 q 471 -149 472 -144 q 430 -358 465 -256 q 370 -468 410 -418 m 301 380 q 314 412 314 401 q 313 420 314 414 q 288 440 311 426 q 270 450 279 446 q 212 465 237 465 q 175 456 197 465 q 131 404 153 448 q 102 292 102 351 l 102 273 q 119 203 102 237 q 138 188 126 188 q 153 193 144 188 q 206 239 184 210 q 301 380 260 305 m 303 -389 q 331 -333 320 -362 q 368 -162 361 -250 l 368 -161 q 369 -158 369 -159 l 369 -153 q 359 -140 369 -140 q 350 -142 355 -140 q 178 -254 247 -172 q 124 -371 136 -306 q 123 -390 123 -380 q 127 -420 123 -405 q 168 -456 136 -452 q 182 -457 175 -457 q 201 -456 191 -457 q 303 -389 266 -444 m 690 568 q 787 600 738 600 q 836 594 799 600 q 917 533 872 589 q 966 414 957 480 q 968 383 968 399 q 969 369 968 376 l 969 366 q 925 201 969 277 q 842 114 895 146 q 755 89 799 89 q 706 96 741 89 q 628 153 670 102 q 582 250 594 196 q 573 326 573 288 q 616 484 573 408 q 690 568 643 535 m 837 251 q 867 363 867 302 q 867 376 867 369 q 865 404 867 390 q 836 473 859 442 q 787 498 813 498 q 749 486 769 498 q 707 439 723 467 q 675 324 675 384 q 682 267 675 296 q 706 218 689 239 q 755 191 728 191 q 795 205 774 191 q 837 251 821 223 z "}}}
